<?xml version="1.0" encoding="UTF-8" standalone="no"?>
<svg
   xmlns:dc="http://purl.org/dc/elements/1.1/"
   xmlns:cc="http://creativecommons.org/ns#"
   xmlns:rdf="http://www.w3.org/1999/02/22-rdf-syntax-ns#"
   xmlns:svg="http://www.w3.org/2000/svg"
   xmlns="http://www.w3.org/2000/svg"
   viewBox="0 0 377.5 136.25"
   height="136.25"
   width="377.5"
   xml:space="preserve"
   version="1.1"
   id="svg2"><metadata
     id="metadata8"><rdf:RDF><cc:Work
         rdf:about=""><dc:format>image/svg+xml</dc:format><dc:type
           rdf:resource="http://purl.org/dc/dcmitype/StillImage" /></cc:Work></rdf:RDF></metadata><defs
     id="defs6" /><g
     transform="matrix(1.25,0,0,-1.25,0,136.25)"
     id="g10"><g
       transform="translate(77.081,43.132)"
       id="g12"><path
         id="path14"
         style="fill:#1b75bc;fill-opacity:1;fill-rule:nonzero;stroke:none"
         d="m 0,0 0,13.548 c 0,0.282 0.097,0.523 0.293,0.728 0.197,0.204 0.435,0.304 0.717,0.304 l 8.98,0 c 1.66,0 3.023,-0.446 4.085,-1.337 1.062,-0.895 1.593,-2.098 1.593,-3.613 0,-2.11 -1.366,-3.435 -4.104,-3.97 0.428,-0.168 0.829,-0.442 1.204,-0.829 0.371,-0.382 0.798,-0.946 1.277,-1.685 L 16.025,0 c 0.122,-0.208 0.185,-0.39 0.185,-0.542 0,-0.067 -0.011,-0.126 -0.033,-0.186 -0.071,-0.197 -0.249,-0.293 -0.531,-0.293 l -2.611,0 c -0.286,0 -0.59,0.1 -0.917,0.3 -0.323,0.197 -0.576,0.439 -0.75,0.721 L 9.518,2.897 C 8.764,4.085 7.843,4.679 6.759,4.679 l -2.655,0 0,-4.679 c 0,-0.282 -0.101,-0.524 -0.301,-0.721 -0.197,-0.2 -0.438,-0.3 -0.724,-0.3 l -2.046,0 c -0.283,0 -0.524,0.1 -0.728,0.3 C 0.1,-0.524 0,-0.282 0,0 Z m 4.104,7.758 4.634,0 c 0.74,0 1.393,0.148 1.969,0.445 0.572,0.298 0.857,0.773 0.857,1.427 0,0.653 -0.285,1.129 -0.854,1.426 -0.568,0.297 -1.225,0.445 -1.972,0.445 l -4.634,0 0,-3.743 z M 18.553,0.323 c -1.118,1.044 -1.675,2.57 -1.675,4.579 0,2.005 0.561,3.547 1.686,4.616 1.125,1.07 2.681,1.605 4.668,1.605 2.002,0 3.562,-0.532 4.676,-1.597 1.118,-1.066 1.678,-2.596 1.678,-4.587 l 0,-0.635 C 29.586,4.104 29.523,3.94 29.393,3.81 29.267,3.68 29.107,3.613 28.911,3.613 l -8.193,0 c 0.071,-0.831 0.327,-1.437 0.765,-1.816 0.442,-0.379 1.114,-0.568 2.02,-0.568 1.022,0 1.735,0.242 2.132,0.728 0.312,0.383 0.728,0.579 1.252,0.587 l 1.622,0 c 0.193,0 0.357,-0.067 0.483,-0.201 0.127,-0.137 0.19,-0.308 0.19,-0.516 0,-2.054 -1.984,-3.075 -5.95,-3.067 -2.001,0 -3.561,0.519 -4.679,1.563 z m 2.143,5.76 5.058,0 c -0.071,1.712 -0.91,2.57 -2.518,2.57 -1.608,0 -2.455,-0.858 -2.54,-2.57 z m 11.657,-6.321 c -0.962,0.665 -1.441,1.608 -1.441,2.826 0,1.222 0.479,2.158 1.441,2.808 0.958,0.654 2.195,0.981 3.71,0.981 l 3.598,0 c 0,0.85 -0.178,1.44 -0.534,1.775 -0.353,0.334 -0.917,0.501 -1.686,0.501 -1.01,0 -1.72,-0.245 -2.124,-0.739 C 35.005,7.531 34.589,7.338 34.069,7.338 l -1.616,0 c -0.196,0 -0.356,0.063 -0.482,0.19 -0.127,0.126 -0.19,0.282 -0.19,0.471 0,2.084 1.972,3.124 5.92,3.124 1.727,0 3.112,-0.387 4.155,-1.159 1.044,-0.773 1.568,-1.968 1.568,-3.587 l 0,-6.734 c 0,-0.196 -0.064,-0.356 -0.186,-0.479 -0.122,-0.122 -0.282,-0.185 -0.479,-0.185 l -2.098,0 c -0.194,0 -0.353,0.063 -0.476,0.189 C 40.059,-0.706 40,-0.546 40,-0.357 l 0,0.335 c -1.148,-0.821 -2.459,-1.226 -3.937,-1.218 -1.515,0 -2.752,0.334 -3.71,1.002 z m 2.321,2.826 c 0,-0.397 0.152,-0.724 0.457,-0.976 0.304,-0.256 0.739,-0.383 1.296,-0.383 1.118,0 2.195,0.327 3.234,0.981 l 0,1.697 -3.342,0 C 35.811,3.907 35.41,3.784 35.116,3.535 34.823,3.29 34.674,2.975 34.674,2.588 Z m 11.431,-2.945 0,14.261 c 0,0.197 0.063,0.36 0.19,0.487 0.126,0.126 0.285,0.189 0.475,0.189 l 2.432,0 c 0.197,0 0.357,-0.063 0.479,-0.189 0.123,-0.127 0.186,-0.29 0.186,-0.487 l 0,-7.724 c 1.263,0 2.124,0.49 2.588,1.47 l 1.048,2.221 c 0.145,0.312 0.356,0.561 0.638,0.75 0.286,0.189 0.591,0.282 0.914,0.282 l 2.057,0 c 0.364,0 0.546,-0.141 0.546,-0.423 0,-0.16 -0.059,-0.364 -0.174,-0.609 L 56.08,6.911 C 55.839,6.421 55.516,5.998 55.1,5.641 54.687,5.285 54.242,5.058 53.763,4.954 54.654,4.687 55.426,4.033 56.08,2.997 l 1.85,-2.993 c 0.122,-0.212 0.189,-0.394 0.196,-0.546 0,-0.067 -0.011,-0.126 -0.033,-0.186 -0.074,-0.197 -0.253,-0.293 -0.535,-0.293 l -2.054,0 c -0.698,0 -1.251,0.341 -1.667,1.025 L 52.455,2.261 C 51.861,3.227 51,3.71 49.867,3.71 l 0,-4.067 c 0,-0.196 -0.063,-0.356 -0.189,-0.479 -0.127,-0.122 -0.286,-0.185 -0.476,-0.185 l -2.432,0 c -0.197,0 -0.357,0.063 -0.479,0.185 -0.123,0.123 -0.186,0.283 -0.186,0.479 z m 13.368,4.011 0,10.25 c 0,0.197 0.063,0.36 0.19,0.487 0.126,0.126 0.285,0.189 0.475,0.189 l 2.432,0 c 0.197,0 0.357,-0.063 0.479,-0.189 0.123,-0.127 0.186,-0.29 0.186,-0.483 l 0,-3.625 3.034,0 c 0.197,0 0.357,-0.063 0.479,-0.185 0.123,-0.123 0.186,-0.286 0.186,-0.479 l 0,-1.304 C 66.934,8.122 66.871,7.959 66.745,7.836 66.618,7.713 66.459,7.65 66.269,7.65 l -3.034,0 0,-4.04 c 0,-0.75 0.175,-1.33 0.524,-1.738 0.345,-0.405 0.809,-0.609 1.392,-0.609 0.193,0 0.457,0.022 0.784,0.063 0.323,0.044 0.561,0.067 0.706,0.067 l 0.401,0 c 0.196,0 0.36,-0.06 0.486,-0.179 0.126,-0.122 0.189,-0.275 0.189,-0.468 l 0,-1.129 c 0,-0.163 -0.063,-0.304 -0.189,-0.423 -0.126,-0.122 -0.29,-0.193 -0.486,-0.223 -0.74,-0.141 -1.705,-0.211 -2.893,-0.211 -3.116,-0.008 -4.676,1.626 -4.676,4.894 z m 10.019,9.485 0,0.375 c 0,0.394 0.112,0.706 0.335,0.936 0.219,0.23 0.527,0.345 0.917,0.345 l 1.348,0 c 0.383,0 0.687,-0.111 0.914,-0.337 0.223,-0.227 0.338,-0.543 0.338,-0.944 l 0,-0.375 c 0,-0.394 -0.112,-0.705 -0.335,-0.936 -0.219,-0.23 -0.527,-0.345 -0.917,-0.345 l -1.348,0 c -0.382,0 -0.687,0.115 -0.913,0.345 -0.223,0.231 -0.339,0.542 -0.339,0.936 z m 0.045,-13.499 0,10.268 c 0,0.197 0.063,0.357 0.19,0.479 0.126,0.123 0.286,0.182 0.475,0.182 l 2.432,0 c 0.197,0 0.357,-0.063 0.479,-0.189 0.123,-0.127 0.186,-0.282 0.186,-0.472 l 0,-10.268 c 0,-0.197 -0.063,-0.353 -0.189,-0.476 -0.126,-0.122 -0.286,-0.185 -0.476,-0.185 l -2.432,0 c -0.197,0 -0.357,0.063 -0.479,0.185 -0.123,0.123 -0.186,0.279 -0.186,0.476 z m 5.43,10.981 c 0.081,0.189 0.248,0.282 0.501,0.282 l 2.087,0 c 0.312,0 0.609,-0.089 0.884,-0.267 0.275,-0.178 0.472,-0.409 0.587,-0.691 l 2.971,-6.777 2.96,6.777 c 0.115,0.282 0.311,0.513 0.586,0.691 0.275,0.178 0.568,0.267 0.881,0.267 l 2.101,0 c 0.253,0 0.42,-0.093 0.498,-0.282 0.037,-0.074 0.052,-0.156 0.045,-0.252 0,-0.13 -0.034,-0.271 -0.097,-0.424 L 84.27,-0.063 c -0.13,-0.283 -0.335,-0.513 -0.613,-0.691 -0.282,-0.178 -0.568,-0.267 -0.865,-0.267 l -1.601,0 c -0.297,0 -0.583,0.089 -0.858,0.267 -0.279,0.178 -0.479,0.408 -0.613,0.691 L 75.022,9.945 c -0.074,0.16 -0.107,0.301 -0.107,0.424 0,0.096 0.015,0.178 0.052,0.252 z M 91.638,0.323 c -1.118,1.044 -1.675,2.57 -1.675,4.579 0,2.005 0.56,3.547 1.686,4.616 1.125,1.07 2.681,1.605 4.668,1.605 2.002,0 3.561,-0.532 4.675,-1.597 1.118,-1.066 1.679,-2.596 1.679,-4.587 l 0,-0.635 c 0,-0.2 -0.063,-0.364 -0.193,-0.494 -0.126,-0.13 -0.286,-0.197 -0.483,-0.197 l -8.192,0 c 0.07,-0.831 0.327,-1.437 0.765,-1.816 0.442,-0.379 1.114,-0.568 2.02,-0.568 1.021,0 1.734,0.242 2.132,0.728 0.311,0.383 0.727,0.579 1.251,0.587 l 1.623,0 c 0.193,0 0.357,-0.067 0.483,-0.201 0.126,-0.137 0.189,-0.308 0.189,-0.516 0,-2.054 -1.983,-3.075 -5.949,-3.067 -2.002,0 -3.562,0.519 -4.679,1.563 z m 2.142,5.76 5.058,0 c -0.07,1.712 -0.91,2.57 -2.518,2.57 -1.607,0 -2.454,-0.858 -2.54,-2.57" /></g><g
       transform="translate(77.081,33.684)"
       id="g16"><path
         id="path18"
         style="fill:#1b75bc;fill-opacity:1;fill-rule:nonzero;stroke:none"
         d="M 0,0 C 0,0.282 0.1,0.524 0.305,0.728 0.509,0.932 0.75,1.032 1.033,1.032 l 8.845,0 c 0.996,0 1.902,-0.137 2.715,-0.408 0.817,-0.275 1.512,-0.754 2.087,-1.441 0.572,-0.683 0.858,-1.534 0.858,-2.548 0,-1.114 -0.49,-2.072 -1.47,-2.87 1.4,-0.743 2.098,-1.954 2.091,-3.632 0,-1.493 -0.558,-2.652 -1.672,-3.473 -1.114,-0.82 -2.477,-1.229 -4.096,-1.229 l -9.358,0 c -0.283,0 -0.524,0.1 -0.728,0.301 C 0.1,-14.071 0,-13.83 0,-13.548 L 0,0 Z m 4.104,-11.631 6.22,0 c 0.568,0 0.996,0.167 1.289,0.501 0.293,0.334 0.442,0.791 0.442,1.37 0,0.58 -0.149,1.036 -0.446,1.371 -0.297,0.334 -0.724,0.501 -1.285,0.501 l -6.22,0 0,-3.743 z m 0,6.681 5.819,0 c 0.457,0 0.825,0.133 1.1,0.401 0.274,0.263 0.412,0.638 0.412,1.117 0,0.479 -0.138,0.851 -0.412,1.122 -0.275,0.271 -0.643,0.405 -1.1,0.405 l -5.819,0 0,-3.045 z m 14.052,-8.954 0,14.261 c 0,0.196 0.064,0.36 0.19,0.486 0.126,0.126 0.286,0.189 0.475,0.189 l 2.433,0 c 0.197,0 0.356,-0.063 0.479,-0.189 0.122,-0.126 0.186,-0.29 0.186,-0.486 l 0,-14.261 c 0,-0.197 -0.064,-0.357 -0.19,-0.479 -0.126,-0.123 -0.286,-0.186 -0.475,-0.186 l -2.433,0 c -0.197,0 -0.356,0.063 -0.479,0.186 -0.122,0.122 -0.186,0.282 -0.186,0.479 z m 7.198,0.119 c -0.962,0.664 -1.441,1.608 -1.441,2.826 0,1.222 0.479,2.157 1.441,2.807 0.958,0.654 2.195,0.981 3.71,0.981 l 3.598,0 c 0,0.85 -0.178,1.441 -0.534,1.775 -0.353,0.334 -0.918,0.501 -1.686,0.501 -1.011,0 -1.72,-0.245 -2.125,-0.739 -0.312,-0.382 -0.728,-0.575 -1.248,-0.575 l -1.615,0 c -0.197,0 -0.357,0.063 -0.483,0.189 -0.126,0.126 -0.189,0.282 -0.189,0.472 0,2.083 1.972,3.123 5.919,3.123 1.727,0 3.113,-0.386 4.156,-1.159 1.044,-0.772 1.567,-1.968 1.567,-3.587 l 0,-6.733 c 0,-0.197 -0.063,-0.357 -0.185,-0.479 -0.123,-0.123 -0.283,-0.186 -0.479,-0.186 l -2.099,0 c -0.193,0 -0.352,0.063 -0.475,0.189 C 33.06,-14.253 33,-14.094 33,-13.904 l 0,0.334 c -1.147,-0.821 -2.458,-1.225 -3.936,-1.218 -1.515,0 -2.752,0.334 -3.71,1.003 z m 2.321,2.826 c 0,-0.397 0.152,-0.724 0.457,-0.977 0.304,-0.256 0.739,-0.383 1.296,-0.383 1.118,0 2.194,0.327 3.234,0.981 l 0,1.697 -3.342,0 c -0.509,0 -0.91,-0.122 -1.203,-0.371 -0.294,-0.245 -0.442,-0.561 -0.442,-0.947 z m 10.759,5.021 c 0,2.347 1.89,3.52 5.667,3.513 3.973,0 5.96,-1.04 5.96,-3.123 0,-0.194 -0.063,-0.353 -0.185,-0.476 -0.123,-0.122 -0.283,-0.185 -0.479,-0.185 l -1.623,0 c -0.524,0 -0.94,0.193 -1.252,0.575 -0.401,0.494 -1.125,0.739 -2.169,0.739 -1.444,0 -2.165,-0.349 -2.157,-1.043 0,-0.327 0.282,-0.602 0.843,-0.817 0.564,-0.219 1.248,-0.409 2.057,-0.572 0.81,-0.164 1.616,-0.372 2.421,-0.628 0.806,-0.252 1.49,-0.657 2.05,-1.211 0.561,-0.557 0.843,-1.258 0.843,-2.109 0,-2.347 -1.994,-3.52 -5.986,-3.513 -3.981,0 -5.968,1.036 -5.968,3.112 0,0.197 0.063,0.357 0.189,0.483 0.126,0.126 0.286,0.189 0.483,0.189 l 1.615,0 c 0.52,0 0.936,-0.197 1.248,-0.587 0.398,-0.49 1.118,-0.735 2.165,-0.728 1.66,0 2.492,0.35 2.492,1.044 0,0.327 -0.282,0.602 -0.843,0.817 -0.564,0.219 -1.251,0.412 -2.064,0.583 -0.814,0.171 -1.62,0.383 -2.418,0.632 -0.799,0.248 -1.478,0.653 -2.043,1.214 -0.564,0.557 -0.846,1.255 -0.846,2.091 z m 14.985,-7.286 c -1.118,1.043 -1.675,2.569 -1.675,4.578 0,2.006 0.56,3.547 1.686,4.617 1.125,1.069 2.681,1.604 4.668,1.604 2.002,0 3.561,-0.531 4.676,-1.597 1.117,-1.066 1.678,-2.596 1.678,-4.587 l 0,-0.634 c 0,-0.201 -0.063,-0.364 -0.193,-0.494 -0.126,-0.13 -0.286,-0.197 -0.483,-0.197 l -8.192,0 c 0.07,-0.832 0.327,-1.437 0.765,-1.816 0.442,-0.379 1.114,-0.569 2.02,-0.569 1.021,0 1.734,0.242 2.132,0.728 0.312,0.383 0.727,0.58 1.251,0.587 l 1.623,0 c 0.193,0 0.357,-0.067 0.483,-0.2 0.126,-0.138 0.189,-0.309 0.189,-0.516 0,-2.054 -1.983,-3.075 -5.949,-3.068 -2.002,0 -3.562,0.52 -4.679,1.564 z m 2.142,5.76 5.058,0 c -0.07,1.711 -0.909,2.569 -2.518,2.569 -1.607,0 -2.454,-0.858 -2.54,-2.569 z m 10.889,-6.44 0,10.584 c 0,0.197 0.063,0.36 0.189,0.487 0.127,0.126 0.286,0.189 0.476,0.189 l 2.432,0 c 0.197,0 0.357,-0.063 0.479,-0.189 0.123,-0.127 0.186,-0.29 0.186,-0.487 l 0,-0.683 c 1.248,1.05 2.518,1.578 3.81,1.578 1.53,0 2.737,-0.431 3.625,-1.289 0.884,-0.861 1.326,-2.176 1.326,-3.944 l 0,-6.246 c 0,-0.197 -0.064,-0.357 -0.19,-0.479 -0.126,-0.123 -0.289,-0.186 -0.486,-0.186 l -2.422,0 c -0.196,0 -0.356,0.063 -0.479,0.189 -0.122,0.127 -0.185,0.286 -0.185,0.476 l 0,6.246 c 0,1.742 -0.695,2.607 -2.08,2.6 -0.906,0 -1.879,-0.52 -2.919,-1.556 l 0,-7.29 c 0,-0.197 -0.063,-0.357 -0.189,-0.479 -0.127,-0.123 -0.286,-0.186 -0.476,-0.186 l -2.432,0 c -0.197,0 -0.357,0.063 -0.48,0.186 -0.122,0.122 -0.185,0.282 -0.185,0.479 z m 14.517,7.966 c 0,2.347 1.89,3.52 5.667,3.513 3.974,0 5.961,-1.04 5.961,-3.123 0,-0.194 -0.064,-0.353 -0.186,-0.476 -0.123,-0.122 -0.282,-0.185 -0.479,-0.185 l -1.623,0 c -0.524,0 -0.94,0.193 -1.252,0.575 -0.401,0.494 -1.125,0.739 -2.169,0.739 -1.444,0 -2.165,-0.349 -2.157,-1.043 0,-0.327 0.282,-0.602 0.843,-0.817 0.564,-0.219 1.248,-0.409 2.057,-0.572 0.81,-0.164 1.616,-0.372 2.422,-0.628 0.806,-0.252 1.489,-0.657 2.049,-1.211 0.561,-0.557 0.843,-1.258 0.843,-2.109 0,-2.347 -1.994,-3.52 -5.986,-3.513 -3.981,0 -5.968,1.036 -5.968,3.112 0,0.197 0.063,0.357 0.19,0.483 0.126,0.126 0.286,0.189 0.482,0.189 l 1.616,0 c 0.52,0 0.936,-0.197 1.248,-0.587 0.397,-0.49 1.117,-0.735 2.165,-0.728 1.66,0 2.492,0.35 2.492,1.044 0,0.327 -0.283,0.602 -0.843,0.817 -0.565,0.219 -1.252,0.412 -2.065,0.583 -0.813,0.171 -1.619,0.383 -2.418,0.632 -0.798,0.248 -1.478,0.653 -2.042,1.214 -0.565,0.557 -0.847,1.255 -0.847,2.091 z m 13.982,-3.955 0,10.25 c 0,0.196 0.063,0.36 0.19,0.486 0.126,0.126 0.285,0.189 0.475,0.189 l 2.432,0 c 0.197,0 0.357,-0.063 0.479,-0.189 0.123,-0.126 0.186,-0.29 0.186,-0.483 l 0,-3.624 3.034,0 c 0.197,0 0.357,-0.064 0.479,-0.186 0.123,-0.123 0.186,-0.286 0.186,-0.479 l 0,-1.304 c 0,-0.193 -0.063,-0.356 -0.189,-0.479 -0.127,-0.122 -0.286,-0.185 -0.476,-0.185 l -3.034,0 0,-4.041 c 0,-0.75 0.175,-1.329 0.524,-1.738 0.345,-0.405 0.809,-0.609 1.392,-0.609 0.193,0 0.457,0.022 0.784,0.063 0.323,0.045 0.561,0.067 0.706,0.067 l 0.401,0 c 0.197,0 0.36,-0.059 0.486,-0.178 0.126,-0.123 0.19,-0.275 0.19,-0.468 l 0,-1.129 c 0,-0.164 -0.064,-0.305 -0.19,-0.423 -0.126,-0.123 -0.289,-0.194 -0.486,-0.223 -0.739,-0.141 -1.705,-0.212 -2.893,-0.212 -3.116,-0.007 -4.676,1.626 -4.676,4.895 z m 10.02,-4.011 0,10.584 c 0,0.197 0.063,0.36 0.189,0.487 0.126,0.126 0.286,0.189 0.476,0.189 l 2.432,0 c 0.197,0 0.357,-0.063 0.479,-0.186 0.123,-0.126 0.186,-0.286 0.186,-0.479 l 0,-0.672 c 0.739,0.527 1.452,0.921 2.139,1.173 0.687,0.257 1.582,0.383 2.692,0.383 0.197,0 0.36,-0.063 0.487,-0.189 0.126,-0.123 0.189,-0.279 0.189,-0.465 l 0,-1.63 c 0,-0.193 -0.063,-0.349 -0.189,-0.472 -0.127,-0.122 -0.29,-0.182 -0.487,-0.182 l -0.345,0 c -0.167,0 -0.442,0.012 -0.817,0.034 -0.379,0.022 -0.665,0.033 -0.862,0.033 -0.98,0 -1.916,-0.542 -2.807,-1.619 l 0,-6.985 c 0,-0.197 -0.063,-0.361 -0.19,-0.483 -0.126,-0.123 -0.286,-0.186 -0.475,-0.186 l -2.432,0 c -0.197,0 -0.357,0.063 -0.48,0.186 -0.122,0.122 -0.185,0.282 -0.185,0.479 z m 10.153,5.307 c 0,4.115 2.191,6.172 6.573,6.172 4.379,0 6.57,-2.057 6.57,-6.172 0,-2.039 -0.565,-3.584 -1.694,-4.635 -1.088,-1.036 -2.707,-1.556 -4.861,-1.556 -2.15,0 -3.777,0.52 -4.876,1.556 -1.14,1.051 -1.712,2.596 -1.712,4.635 z m 2.243,8.679 0,0.42 c 0,0.839 0.442,1.258 1.326,1.258 l 1.11,0 c 0.884,0 1.326,-0.419 1.326,-1.258 l 0,-0.42 c 0,-0.84 -0.442,-1.259 -1.326,-1.259 l -1.11,0 c -0.884,0 -1.326,0.419 -1.326,1.259 z m 1.519,-8.679 c 0,-2.481 0.936,-3.722 2.811,-3.722 1.872,0 2.808,1.241 2.808,3.722 0,2.469 -0.936,3.702 -2.808,3.702 -1.875,0 -2.811,-1.233 -2.811,-3.702 z m 3.944,8.679 0,0.42 c 0,0.839 0.442,1.258 1.326,1.258 l 1.11,0 c 0.884,0 1.326,-0.419 1.326,-1.258 l 0,-0.42 c 0,-0.84 -0.442,-1.259 -1.326,-1.259 l -1.11,0 c -0.884,0 -1.326,0.419 -1.326,1.259 z m 7.446,-13.986 0,10.584 c 0,0.197 0.063,0.36 0.189,0.487 0.127,0.126 0.286,0.189 0.476,0.189 l 2.432,0 c 0.197,0 0.357,-0.063 0.479,-0.189 0.123,-0.127 0.186,-0.29 0.186,-0.487 l 0,-0.683 c 0.523,0.508 1.036,0.898 1.541,1.17 0.505,0.271 1.114,0.408 1.824,0.408 1.689,0 2.97,-0.698 3.839,-2.091 1.349,1.4 2.726,2.098 4.134,2.091 1.43,0 2.555,-0.427 3.379,-1.278 0.821,-0.854 1.233,-2.172 1.233,-3.955 l 0,-6.246 c 0,-0.197 -0.063,-0.357 -0.185,-0.479 -0.123,-0.123 -0.283,-0.186 -0.479,-0.186 l -2.422,0 c -0.197,0 -0.36,0.063 -0.486,0.189 -0.126,0.127 -0.19,0.286 -0.19,0.476 l 0,6.246 c 0,1.742 -0.631,2.607 -1.894,2.6 -0.769,0 -1.563,-0.553 -2.384,-1.664 0.045,-0.312 0.067,-0.624 0.067,-0.936 l 0,-6.246 c 0,-0.197 -0.063,-0.357 -0.189,-0.479 -0.127,-0.123 -0.286,-0.186 -0.476,-0.186 l -2.421,0 c -0.197,0 -0.36,0.063 -0.487,0.189 -0.126,0.127 -0.189,0.286 -0.189,0.476 l 0,6.246 c 0,1.742 -0.631,2.607 -1.894,2.6 -0.806,0 -1.582,-0.52 -2.321,-1.556 l 0,-7.29 c 0,-0.197 -0.063,-0.357 -0.189,-0.479 -0.127,-0.123 -0.286,-0.186 -0.476,-0.186 l -2.432,0 c -0.197,0 -0.357,0.063 -0.48,0.186 -0.122,0.122 -0.185,0.282 -0.185,0.479 z m 22.39,4.349 0,6.235 c 0,0.197 0.063,0.36 0.189,0.487 0.127,0.126 0.286,0.189 0.476,0.189 l 2.432,0 c 0.197,0 0.357,-0.063 0.479,-0.189 0.123,-0.127 0.186,-0.29 0.186,-0.483 l 0,-6.232 c 0,-1.738 0.691,-2.607 2.068,-2.607 0.91,0 1.883,0.52 2.931,1.563 l 0,7.276 c 0,0.193 0.063,0.356 0.189,0.483 0.126,0.126 0.286,0.189 0.475,0.189 l 2.422,0 c 0.197,0 0.36,-0.063 0.486,-0.189 0.127,-0.127 0.19,-0.29 0.19,-0.487 l 0,-10.584 c 0,-0.197 -0.063,-0.357 -0.19,-0.479 -0.126,-0.123 -0.289,-0.186 -0.486,-0.186 l -2.422,0 c -0.196,0 -0.356,0.063 -0.479,0.189 -0.122,0.131 -0.185,0.286 -0.185,0.476 l 0,0.702 c -1.248,-1.059 -2.518,-1.586 -3.811,-1.586 -1.53,0 -2.737,0.431 -3.624,1.289 -0.884,0.861 -1.326,2.176 -1.326,3.944 z m 15.189,-4.349 0,10.584 c 0,0.197 0.063,0.36 0.19,0.487 0.126,0.126 0.285,0.189 0.475,0.189 l 2.432,0 c 0.197,0 0.357,-0.063 0.479,-0.189 0.123,-0.127 0.186,-0.29 0.186,-0.487 l 0,-0.683 c 1.248,1.05 2.518,1.578 3.81,1.578 1.53,0 2.737,-0.431 3.625,-1.289 0.884,-0.861 1.326,-2.176 1.326,-3.944 l 0,-6.246 c 0,-0.197 -0.063,-0.357 -0.19,-0.479 -0.126,-0.123 -0.289,-0.186 -0.486,-0.186 l -2.422,0 c -0.196,0 -0.356,0.063 -0.479,0.189 -0.122,0.127 -0.185,0.286 -0.185,0.476 l 0,6.246 c 0,1.742 -0.695,2.607 -2.08,2.6 -0.906,0 -1.879,-0.52 -2.919,-1.556 l 0,-7.29 c 0,-0.197 -0.063,-0.357 -0.189,-0.479 -0.127,-0.123 -0.286,-0.186 -0.476,-0.186 l -2.432,0 c -0.197,0 -0.357,0.063 -0.479,0.186 -0.123,0.122 -0.186,0.282 -0.186,0.479 z m 14.517,5.819 c 0,1.801 0.568,3.194 1.701,4.178 1.133,0.988 2.756,1.482 4.872,1.482 1.051,0 2.143,-0.119 3.276,-0.353 1.129,-0.237 1.983,-0.524 2.555,-0.865 l 0,-10.076 c 0,-1.619 -0.535,-2.815 -1.601,-3.587 -1.066,-0.773 -2.51,-1.159 -4.337,-1.159 -2.024,0 -3.554,0.242 -4.598,0.725 -1.04,0.482 -1.56,1.277 -1.56,2.388 0,0.196 0.063,0.356 0.19,0.486 0.126,0.126 0.29,0.189 0.486,0.189 l 1.619,0 c 0.524,0 0.94,-0.193 1.252,-0.575 0.397,-0.494 1.177,-0.743 2.34,-0.743 0.876,0 1.504,0.167 1.882,0.501 0.375,0.335 0.565,0.925 0.565,1.772 l 0,0.512 c -1.162,-0.297 -2.247,-0.445 -3.257,-0.445 -1.612,0 -2.912,0.497 -3.899,1.489 -0.992,0.995 -1.486,2.354 -1.486,4.081 z m 3.762,0 c 0,-1.957 0.839,-2.937 2.518,-2.937 0.694,0 1.482,0.107 2.362,0.327 l 0,5.399 c -0.624,0.164 -1.389,0.245 -2.299,0.238 -1.719,0.007 -2.581,-1.003 -2.581,-3.027 z m 12.322,-5.139 c -1.118,1.043 -1.675,2.569 -1.675,4.578 0,2.006 0.561,3.547 1.686,4.617 1.126,1.069 2.682,1.604 4.669,1.604 2.001,0 3.561,-0.531 4.675,-1.597 1.118,-1.066 1.679,-2.596 1.679,-4.587 l 0,-0.634 c 0,-0.201 -0.063,-0.364 -0.193,-0.494 -0.126,-0.13 -0.286,-0.197 -0.483,-0.197 l -8.192,0 c 0.07,-0.832 0.326,-1.437 0.765,-1.816 0.442,-0.379 1.114,-0.569 2.02,-0.569 1.021,0 1.734,0.242 2.131,0.728 0.312,0.383 0.728,0.58 1.252,0.587 l 1.623,0 c 0.193,0 0.356,-0.067 0.483,-0.2 0.126,-0.138 0.189,-0.309 0.189,-0.516 0,-2.054 -1.983,-3.075 -5.949,-3.068 -2.002,0 -3.562,0.52 -4.68,1.564 z m 2.143,5.76 5.058,0 c -0.07,1.711 -0.91,2.569 -2.518,2.569 -1.608,0 -2.455,-0.858 -2.54,-2.569 z m 10.889,-6.44 0,10.584 c 0,0.197 0.063,0.36 0.189,0.487 0.126,0.126 0.286,0.189 0.476,0.189 l 2.432,0 c 0.197,0 0.357,-0.063 0.479,-0.189 0.122,-0.127 0.186,-0.29 0.186,-0.487 l 0,-0.683 c 1.248,1.05 2.517,1.578 3.81,1.578 1.53,0 2.737,-0.431 3.624,-1.289 0.885,-0.861 1.326,-2.176 1.326,-3.944 l 0,-6.246 c 0,-0.197 -0.063,-0.357 -0.189,-0.479 -0.126,-0.123 -0.29,-0.186 -0.487,-0.186 l -2.421,0 c -0.197,0 -0.357,0.063 -0.479,0.189 -0.122,0.127 -0.186,0.286 -0.186,0.476 l 0,6.246 c 0,1.742 -0.694,2.607 -2.079,2.6 -0.906,0 -1.88,-0.52 -2.919,-1.556 l 0,-7.29 c 0,-0.197 -0.064,-0.357 -0.19,-0.479 -0.126,-0.123 -0.286,-0.186 -0.475,-0.186 l -2.432,0 c -0.197,0 -0.357,0.063 -0.48,0.186 -0.122,0.122 -0.185,0.282 -0.185,0.479" /></g><g
       transform="translate(76.25,1.5782)"
       id="g20"><path
         id="path22"
         style="fill:#1b75bc;fill-opacity:1;fill-rule:nonzero;stroke:none"
         d="m 0,0 0,6.3119 c 0,0.1386 0.047,0.2546 0.142,0.3498 0.095,0.095 0.208,0.1417 0.339,0.1417 l 2.835,0 c 1.468,0 2.536,-0.2925 3.202,-0.879 C 7.186,5.3377 7.52,4.4187 7.52,3.1654 7.52,1.9126 7.186,0.9953 6.518,0.4102 5.852,-0.1746 4.784,-0.4672 3.316,-0.4672 l -2.835,0 c -0.131,0 -0.244,0.0451 -0.339,0.135 C 0.047,-0.2438 0,-0.1332 0,0 Z m 1.913,0.9675 1.348,0 c 0.905,0 1.523,0.1663 1.852,0.4969 0.33,0.3322 0.494,0.898 0.494,1.701 0,0.8032 -0.164,1.3709 -0.491,1.7031 C 4.789,5.2027 4.169,5.3688 3.261,5.3688 l -1.348,0 0,-4.4013 z m 7.741,-0.9482 0,6.3136 c 0,0.1315 0.046,0.2421 0.142,0.334 0.095,0.0915 0.207,0.1365 0.339,0.1365 l 5.846,0 c 0.132,0 0.244,-0.0467 0.336,-0.1417 0.093,-0.0952 0.14,-0.2078 0.14,-0.3393 l 0,-0.4777 c 0,-0.1315 -0.047,-0.244 -0.14,-0.3358 C 16.225,5.4156 16.113,5.3688 15.981,5.3688 l -4.415,0 0,-1.7844 3.595,0 c 0.131,0 0.244,-0.0468 0.335,-0.142 0.094,-0.0949 0.141,-0.2058 0.141,-0.3339 l 0,-0.4827 c 0,-0.1316 -0.047,-0.2441 -0.141,-0.336 -0.091,-0.0935 -0.204,-0.14 -0.335,-0.14 l -3.595,0 0,-2.1305 c 0,-0.1387 -0.047,-0.2546 -0.14,-0.3461 -0.092,-0.0936 -0.204,-0.1404 -0.337,-0.1404 l -0.954,0 c -0.132,0 -0.244,0.0468 -0.339,0.1404 C 9.7,-0.2353 9.654,-0.1194 9.654,0.0193 Z m 8.107,3.1445 c 0,1.2549 0.313,2.1824 0.94,2.7813 0.628,0.5987 1.568,0.8983 2.822,0.8983 l 1.131,0 c 0.746,0 1.419,-0.1783 2.019,-0.5349 0.601,-0.3566 0.9,-0.8013 0.9,-1.3359 0,-0.1993 -0.058,-0.3428 -0.178,-0.4275 C 25.277,4.4583 25.163,4.4152 25.051,4.4152 l -0.602,0 c -0.291,0 -0.52,0.1591 -0.686,0.476 -0.178,0.3444 -0.607,0.5174 -1.286,0.5174 l -0.903,0 c -0.739,0 -1.241,-0.1594 -1.506,-0.4778 -0.263,-0.3182 -0.395,-0.9068 -0.395,-1.767 0,-0.8411 0.118,-1.4242 0.355,-1.7496 0.237,-0.3237 0.66,-0.4864 1.269,-0.4864 l 1.038,0 c 0.549,0 0.938,0.102 1.168,0.3047 0.232,0.2041 0.352,0.495 0.359,0.8756 l -1.146,0 c -0.132,0 -0.244,0.0468 -0.338,0.142 -0.093,0.0933 -0.14,0.2076 -0.14,0.3427 l 0,0.3998 c 0,0.1348 0.047,0.2491 0.14,0.3426 0.094,0.0953 0.206,0.1418 0.338,0.1418 l 2.546,0 c 0.131,0 0.244,-0.0465 0.336,-0.1401 0.093,-0.0917 0.14,-0.2043 0.14,-0.3358 l 0,-0.5624 c 0,-0.9502 -0.284,-1.6787 -0.852,-2.1859 -0.567,-0.507 -1.402,-0.7596 -2.501,-0.7596 l -1.14,0 c -1.122,0 -1.984,0.3027 -2.584,0.9068 -0.601,0.6041 -0.9,1.5247 -0.9,2.7638 z M 32.19,1.3932 c 0,0.1993 0.059,0.3427 0.178,0.4275 0.118,0.0867 0.232,0.1298 0.344,0.1298 l 0.603,0 c 0.304,0 0.533,-0.159 0.685,-0.4759 0.164,-0.3444 0.524,-0.5174 1.078,-0.5174 L 36.854,0.921 c 0.593,0 0.891,0.1956 0.891,0.583 0,0.1698 -0.1,0.3167 -0.299,0.4397 -0.199,0.1228 -0.462,0.2234 -0.789,0.3028 -0.328,0.0796 -0.688,0.1664 -1.079,0.2613 -0.392,0.0952 -0.787,0.1923 -1.184,0.2875 -0.398,0.0969 -0.754,0.2196 -1.072,0.3701 -0.319,0.1525 -0.575,0.3601 -0.772,0.6251 -0.198,0.2648 -0.296,0.5763 -0.296,0.9343 0,0.6786 0.242,1.2013 0.725,1.5681 0.483,0.3669 1.313,0.5505 2.494,0.5505 l 1.288,-0.0312 c 0.692,0 1.316,-0.1783 1.872,-0.5348 0.556,-0.3567 0.834,-0.8014 0.834,-1.3343 0,-0.2007 -0.059,-0.3444 -0.176,-0.4329 C 39.171,4.4237 39.059,4.3787 38.95,4.3787 l -0.603,0 c -0.304,0 -0.533,0.161 -0.683,0.483 -0.166,0.3444 -0.526,0.5156 -1.08,0.5156 l -1.527,0.0313 c -0.593,0 -0.891,-0.194 -0.891,-0.5832 0,-0.2128 0.194,-0.3688 0.582,-0.4708 0.385,-0.1021 0.842,-0.2217 1.367,-0.36 0.524,-0.1383 1.057,-0.2786 1.599,-0.4224 0.544,-0.1417 1.002,-0.3807 1.379,-0.7129 0.376,-0.3342 0.565,-0.7495 0.565,-1.2478 0,-0.6803 -0.243,-1.203 -0.727,-1.5698 -0.487,-0.3668 -1.317,-0.5505 -2.492,-0.5505 l -1.537,0.0311 c -0.693,0 -1.317,0.1783 -1.876,0.5349 -0.558,0.3566 -0.836,0.8014 -0.836,1.336 z m 9.601,-1.3844 0,6.3136 c 0,0.1315 0.046,0.2441 0.137,0.3393 0.092,0.095 0.203,0.1417 0.336,0.1417 l 3.868,0 c 2.042,0 3.065,-0.9413 3.067,-2.8261 0.002,-1.8847 -1.021,-2.8262 -3.067,-2.8262 l -2.428,0 0,-1.1406 c 0,-0.1332 -0.047,-0.2458 -0.14,-0.3373 -0.092,-0.0936 -0.204,-0.1404 -0.338,-0.1404 l -0.953,0 c -0.132,0 -0.244,0.0468 -0.34,0.1404 -0.095,0.0915 -0.142,0.2041 -0.142,0.3356 z m 1.913,2.577 1.85,0 c 0.568,0 0.999,0.0952 1.293,0.2857 0.294,0.1919 0.441,0.5607 0.441,1.1058 0,0.5451 -0.147,0.9139 -0.441,1.1058 -0.294,0.1905 -0.725,0.2857 -1.293,0.2857 l -1.85,0 0,-2.783 z m 7.523,-2.577 0,6.3136 c 0,0.1315 0.045,0.2441 0.137,0.3393 0.092,0.095 0.202,0.1417 0.336,0.1417 l 3.868,0 c 2.042,0 3.065,-0.9413 3.067,-2.8261 0.001,-1.8847 -1.022,-2.8262 -3.067,-2.8262 l -2.428,0 0,-1.1406 c 0,-0.1332 -0.047,-0.2458 -0.141,-0.3373 -0.091,-0.0936 -0.204,-0.1404 -0.337,-0.1404 l -0.954,0 c -0.131,0 -0.244,0.0468 -0.339,0.1404 -0.095,0.0915 -0.142,0.2041 -0.142,0.3356 z m 1.913,2.577 1.85,0 c 0.567,0 0.998,0.0952 1.292,0.2857 0.295,0.1919 0.442,0.5607 0.442,1.1058 0,0.5451 -0.147,0.9139 -0.442,1.1058 -0.294,0.1905 -0.725,0.2857 -1.292,0.2857 l -1.85,0 0,-2.783 z m 11.6,2.4488 c -0.039,0.0573 -0.06,0.1159 -0.06,0.1766 0,0.0953 0.055,0.1888 0.168,0.2838 l 1.237,1.0643 c 0.178,0.1594 0.427,0.2407 0.744,0.2441 l 0.746,0 c 0.139,0 0.255,-0.0467 0.35,-0.1417 0.095,-0.0952 0.142,-0.2078 0.142,-0.3393 l 0,-6.3136 c 0,-0.1315 -0.049,-0.2441 -0.147,-0.3356 -0.099,-0.0936 -0.213,-0.1404 -0.345,-0.1404 l -0.943,0 c -0.133,0 -0.246,0.0451 -0.338,0.135 -0.093,0.0884 -0.14,0.199 -0.14,0.3322 l 0,4.9014 -0.583,-0.4258 C 65.504,4.4289 65.426,4.4135 65.339,4.4309 65.251,4.4481 65.18,4.4861 65.126,4.5468 L 64.74,5.0346 Z m 5.254,0.8101 0,0.4777 c 0,0.1315 0.049,0.2441 0.148,0.3393 0.097,0.095 0.212,0.1417 0.344,0.1417 l 5.429,0 c 0.133,0 0.248,-0.0467 0.343,-0.1417 0.097,-0.0952 0.145,-0.2078 0.145,-0.3393 l 0,-0.4675 C 76.403,5.618 76.3,5.3115 76.094,4.9326 L 73.432,0.0088 c -0.173,-0.3167 -0.395,-0.476 -0.665,-0.476 l -1.038,0 c -0.141,0 -0.236,0.0451 -0.289,0.135 -0.056,0.0884 -0.056,0.1871 0,0.2908 l 2.93,5.4102 -3.884,0 c -0.138,0 -0.256,0.0468 -0.349,0.1401 -0.096,0.0918 -0.143,0.2043 -0.143,0.3358 z m 6.985,-4.5586 0,0.6041 c 0,0.2976 0.105,0.5606 0.314,0.7908 l 3.351,3.8075 c 0.185,0.2061 0.45,0.3115 0.791,0.3149 l 1.587,0 c 0.139,0 0.254,-0.0467 0.35,-0.1417 0.095,-0.0952 0.142,-0.2078 0.142,-0.3393 l 0,-4.0776 0.557,0 c 0.137,0 0.254,-0.0468 0.348,-0.1418 0.095,-0.0952 0.142,-0.2077 0.142,-0.3393 l 0,-0.4776 C 84.561,1.1546 84.512,1.042 84.413,0.9502 84.317,0.8569 84.201,0.8101 84.071,0.8101 l -0.557,0 0,-0.8013 c 0,-0.1315 -0.049,-0.2441 -0.147,-0.3356 -0.099,-0.0936 -0.213,-0.1404 -0.345,-0.1404 l -0.943,0 c -0.133,0 -0.246,0.0451 -0.337,0.135 -0.094,0.0884 -0.141,0.199 -0.141,0.3305 l 0,0.8118 -4.131,0 c -0.132,0 -0.246,0.0468 -0.344,0.1401 -0.099,0.0918 -0.147,0.2044 -0.147,0.3359 z m 2.036,0.9587 2.586,0 0,2.9352 -2.586,-2.9352 z m 7.137,-0.8255 c -0.189,0.4899 -0.282,1.0729 -0.282,1.7516 0,0.6783 0.093,1.26 0.282,1.7478 0.186,0.4864 0.452,0.8654 0.796,1.139 0.342,0.2732 0.725,0.4725 1.147,0.5986 0.422,0.1247 0.897,0.1871 1.419,0.1871 l 0.357,0 c 0.526,0 1,-0.0624 1.421,-0.1871 0.42,-0.1261 0.803,-0.3254 1.146,-0.5986 0.344,-0.2736 0.609,-0.6526 0.796,-1.139 0.188,-0.4878 0.282,-1.0695 0.282,-1.7478 0,-0.6787 -0.094,-1.2617 -0.282,-1.7516 C 93.047,0.9312 92.782,0.5505 92.438,0.2769 92.095,0.0054 91.712,-0.1936 91.292,-0.3183 90.871,-0.4447 90.397,-0.5068 89.871,-0.5068 l -0.357,0 c -0.526,0 -1,0.0621 -1.421,0.1885 -0.42,0.1247 -0.803,0.3237 -1.145,0.5952 -0.344,0.2736 -0.61,0.6543 -0.796,1.1424 z m 3.541,3.9893 c -1.274,0 -1.911,-0.7459 -1.911,-2.2394 0,-1.4937 0.637,-2.2414 1.911,-2.2414 1.274,0 1.91,0.7477 1.91,2.2414 0,1.4935 -0.636,2.2394 -1.91,2.2394" /></g><g
       transform="translate(30.449,100.789)"
       id="g24"><path
         id="path26"
         style="fill:#fbb03f;fill-opacity:1;fill-rule:nonzero;stroke:none"
         d="m 0,0 c 11.348,0 20.969,-7.406 24.293,-17.648 l 6.064,7.582 -9.683,-0.449 3.418,9.074 -9.074,-3.421 0.451,9.686 L 7.898,-1.232 5.33,8.118 0,0.019 l -5.332,8.099 -2.566,-9.35 -7.573,6.056 0.45,-9.686 -9.071,3.421 3.418,-9.074 -9.687,0.449 6.064,-7.587 C -20.973,-7.407 -11.352,0 0,0" /></g><g
       transform="translate(46.562,77.7)"
       id="g28"><path
         id="path30"
         style="fill:#1b75bc;fill-opacity:1;fill-rule:nonzero;stroke:none"
         d="M 0,0 4.406,0 C 3.168,10.239 -5.551,18.206 -16.113,18.222 l 0,-4.362 C -7.947,13.843 -1.203,7.835 0,0" /></g><g
       transform="translate(35.062,14.955)"
       id="g32"><path
         id="path34"
         style="fill:#1b75bc;fill-opacity:1;fill-rule:nonzero;stroke:none"
         d="m 0,0 c 2.931,0 5.33,2.385 5.353,5.317 0.009,1.429 -0.539,2.779 -1.542,3.795 -1.004,1.019 -2.344,1.585 -3.815,1.596 -2.93,0 -5.33,-2.385 -5.351,-5.316 C -5.377,2.44 -2.991,0.021 -0.038,0 L 0,0 Z m -0.06,-2.713 c -4.448,0.031 -8.041,3.675 -8.008,8.124 0.032,4.417 3.649,8.01 8.124,8.01 C 2.21,13.406 4.229,12.554 5.742,11.019 7.255,9.484 8.082,7.453 8.066,5.296 8.034,0.879 4.416,-2.713 0,-2.713 l -0.06,0" /></g><g
       transform="translate(45.765,2.8303)"
       id="g36"><path
         id="path38"
         style="fill:#1b75bc;fill-opacity:1;fill-rule:nonzero;stroke:none"
         d="M 0,0 C 2.357,0 4.288,1.9171 4.305,4.2769 4.314,5.4269 3.873,6.5121 3.065,7.331 2.258,8.15 1.18,8.605 -0.004,8.613 -2.359,8.613 -4.291,6.6952 -4.307,4.337 -4.325,1.9621 -2.406,0.017 -0.031,0 L 0,0 Z M -0.048,-2.1841 C -3.626,-2.158 -6.517,0.775 -6.491,4.352 -6.465,7.905 -3.556,10.796 0.046,10.796 1.777,10.783 3.401,10.098 4.619,8.864 5.836,7.629 6.5,5.995 6.488,4.2611 6.462,0.708 3.553,-2.1841 0,-2.1841 l -0.048,0" /></g><g
       transform="translate(42.477,37.443)"
       id="g40"><path
         id="path42"
         style="fill:#1b75bc;fill-opacity:1;fill-rule:nonzero;stroke:none"
         d="m 0,0 c 0,-5.365 4.366,-9.73 9.734,-9.73 5.366,0 9.732,4.365 9.732,9.73 0,5.367 -4.366,9.733 -9.732,9.733 C 4.366,9.733 0,5.367 0,0 Z m -4.747,0 c 0,7.985 6.496,14.481 14.481,14.481 7.983,0 14.48,-6.496 14.48,-14.481 0,-7.983 -6.497,-14.479 -14.48,-14.479 -7.985,0 -14.481,6.496 -14.481,14.479" /></g><g
       transform="translate(50.763,75.338)"
       id="g44"><path
         id="path46"
         style="fill:#1b75bc;fill-opacity:1;fill-rule:nonzero;stroke:none"
         d="m 0,0 c 0.002,-0.111 0.018,-0.219 0.018,-0.33 0,-11.96 -9.697,-21.656 -21.657,-21.656 -11.961,0 -21.655,9.696 -21.655,21.656 0,0.111 0.015,0.219 0.017,0.33 l -2.992,0 c 0,-14.333 11.621,-25.953 25.954,-25.953 14.333,0 25.953,11.62 25.953,25.953 L 0,0" /></g></g></svg>