<?xml version="1.0" encoding="UTF-8" standalone="no"?>
<!-- Created with Inkscape (http://www.inkscape.org/) -->
<svg
   xmlns:dc="http://purl.org/dc/elements/1.1/"
   xmlns:cc="http://creativecommons.org/ns#"
   xmlns:rdf="http://www.w3.org/1999/02/22-rdf-syntax-ns#"
   xmlns:svg="http://www.w3.org/2000/svg"
   xmlns="http://www.w3.org/2000/svg"
   xmlns:xlink="http://www.w3.org/1999/xlink"
   xmlns:sodipodi="http://sodipodi.sourceforge.net/DTD/sodipodi-0.dtd"
   xmlns:inkscape="http://www.inkscape.org/namespaces/inkscape"
   id="svg2"
   sodipodi:version="0.32"
   inkscape:version="0.46"
   width="267.99999"
   height="274"
   xml:space="preserve"
   sodipodi:docname="schematic_surfactantsAndDrop.svg"
   inkscape:output_extension="org.inkscape.output.svg.inkscape"><metadata
     id="metadata7"><rdf:RDF><cc:Work
         rdf:about=""><dc:format>image/svg+xml</dc:format><dc:type
           rdf:resource="http://purl.org/dc/dcmitype/StillImage" /></cc:Work></rdf:RDF></metadata><defs
     id="defs5"><inkscape:perspective
       sodipodi:type="inkscape:persp3d"
       inkscape:vp_x="0 : 526.18109 : 1"
       inkscape:vp_y="0 : 1000 : 0"
       inkscape:vp_z="744.09448 : 526.18109 : 1"
       inkscape:persp3d-origin="372.04724 : 350.78739 : 1"
       id="perspective9" /><radialGradient
       fx="420.97266"
       fy="76.273438"
       cx="420.97266"
       cy="76.273438"
       r="81.320312"
       gradientUnits="userSpaceOnUse"
       gradientTransform="matrix(0.680663,0,0,0.689503,-177.55379,49.239683)"
       spreadMethod="pad"
       id="radialGradient17"><stop
         style="stop-opacity:1;stop-color:#fffff3"
         offset="0"
         id="stop19" /><stop
         style="stop-opacity:1;stop-color:#d2ebe2"
         offset="0.25"
         id="stop21" /><stop
         style="stop-opacity:1;stop-color:#a5d7d1"
         offset="0.5"
         id="stop23" /><stop
         style="stop-color:#009f81;stop-opacity:1;"
         offset="1"
         id="stop25" /></radialGradient><radialGradient
       inkscape:collect="always"
       xlink:href="#radialGradient17"
       id="radialGradient3844"
       gradientUnits="userSpaceOnUse"
       gradientTransform="matrix(0.680663,0,0,0.689503,-177.55379,49.239683)"
       spreadMethod="pad"
       cx="420.97266"
       cy="76.273438"
       fx="420.97266"
       fy="76.273438"
       r="81.320312" /></defs><sodipodi:namedview
     inkscape:window-height="993"
     inkscape:window-width="1920"
     inkscape:pageshadow="2"
     inkscape:pageopacity="0.0"
     guidetolerance="10.0"
     gridtolerance="10.0"
     objecttolerance="10.0"
     borderopacity="1.0"
     bordercolor="#666666"
     pagecolor="#ffffff"
     id="base"
     showgrid="false"
     inkscape:zoom="3.3722628"
     inkscape:cx="124.06863"
     inkscape:cy="146.21529"
     inkscape:window-x="-4"
     inkscape:window-y="-4"
     inkscape:current-layer="g11" /><g
     id="g11"
     inkscape:groupmode="layer"
     inkscape:label="schematic_surfactantsAndDrop"
     transform="matrix(1.25,0,0,-1.25,0,274)"><path
       id="path29"
       style="fill:#000000;fill-opacity:1;fill-rule:nonzero;stroke:none"
       d="M 2076.629,907.829 L 2062.254,908.923 L 2062.254,912.048 C 2069.285,912.048 2070.066,912.673 2070.066,917.673 L 2070.066,969.548 C 2070.066,973.923 2068.973,973.923 2062.254,973.923 L 2062.254,977.048 C 2065.535,976.891 2070.848,976.735 2073.348,976.735 C 2075.848,976.735 2080.691,976.891 2084.441,977.048 L 2084.441,973.923 C 2077.723,973.923 2076.629,973.923 2076.629,969.548 L 2076.629,907.829 z" /><path
       id="path31"
       style="fill:#000000;fill-opacity:1;fill-rule:nonzero;stroke:none"
       d="M 2119.773,969.548 C 2120.242,973.454 2122.898,977.673 2127.586,977.673 C 2129.773,977.673 2135.867,976.266 2135.867,968.141 L 2135.867,962.516 L 2133.367,962.516 L 2133.367,968.141 C 2133.367,973.923 2130.867,974.548 2129.773,974.548 C 2126.492,974.548 2126.023,970.016 2126.023,969.548 L 2126.023,949.704 C 2126.023,945.485 2126.023,941.579 2122.43,937.829 C 2118.523,933.923 2113.523,932.36 2108.836,932.36 C 2100.555,932.36 2093.68,937.048 2093.68,943.61 C 2093.68,946.579 2095.711,948.298 2098.367,948.298 C 2101.18,948.298 2102.898,946.266 2102.898,943.766 C 2102.898,942.516 2102.43,939.235 2097.742,939.235 C 2100.555,935.641 2105.398,934.548 2108.523,934.548 C 2113.523,934.548 2119.148,938.454 2119.148,947.36 L 2119.148,950.954 C 2113.992,951.266 2107.117,951.579 2100.867,954.548 C 2093.367,957.985 2090.867,963.141 2090.867,967.516 C 2090.867,975.641 2100.555,978.141 2106.805,978.141 C 2113.367,978.141 2117.898,974.079 2119.773,969.548 z M 2119.148,953.141 L 2119.148,963.141 C 2119.148,972.516 2111.961,975.954 2107.43,975.954 C 2102.586,975.954 2098.523,972.516 2098.523,967.516 C 2098.523,962.048 2102.742,953.766 2119.148,953.141 z" /><path
       id="path33"
       style="fill:#000000;fill-opacity:1;fill-rule:nonzero;stroke:none"
       d="M 2154.117,907.829 L 2139.742,908.923 L 2139.742,912.048 C 2146.773,912.048 2147.555,912.673 2147.555,917.673 L 2147.555,969.548 C 2147.555,973.923 2146.461,973.923 2139.742,973.923 L 2139.742,977.048 C 2143.023,976.891 2148.336,976.735 2150.836,976.735 C 2153.336,976.735 2158.18,976.891 2161.93,977.048 L 2161.93,973.923 C 2155.211,973.923 2154.117,973.923 2154.117,969.548 L 2154.117,907.829 z" /><path
       id="path35"
       style="fill:#000000;fill-opacity:1;fill-rule:nonzero;stroke:none"
       d="M 2197.266,969.548 C 2197.734,973.454 2200.391,977.673 2205.078,977.673 C 2207.266,977.673 2213.359,976.266 2213.359,968.141 L 2213.359,962.516 L 2210.859,962.516 L 2210.859,968.141 C 2210.859,973.923 2208.359,974.548 2207.266,974.548 C 2203.984,974.548 2203.516,970.016 2203.516,969.548 L 2203.516,949.704 C 2203.516,945.485 2203.516,941.579 2199.922,937.829 C 2196.016,933.923 2191.016,932.36 2186.328,932.36 C 2178.047,932.36 2171.172,937.048 2171.172,943.61 C 2171.172,946.579 2173.203,948.298 2175.859,948.298 C 2178.672,948.298 2180.391,946.266 2180.391,943.766 C 2180.391,942.516 2179.922,939.235 2175.234,939.235 C 2178.047,935.641 2182.891,934.548 2186.016,934.548 C 2191.016,934.548 2196.641,938.454 2196.641,947.36 L 2196.641,950.954 C 2191.484,951.266 2184.609,951.579 2178.359,954.548 C 2170.859,957.985 2168.359,963.141 2168.359,967.516 C 2168.359,975.641 2178.047,978.141 2184.297,978.141 C 2190.859,978.141 2195.391,974.079 2197.266,969.548 z M 2196.641,953.141 L 2196.641,963.141 C 2196.641,972.516 2189.453,975.954 2184.922,975.954 C 2180.078,975.954 2176.016,972.516 2176.016,967.516 C 2176.016,962.048 2180.234,953.766 2196.641,953.141 z" /><g
       transform="matrix(1,0,0,-1,0,219.2)"
       id="g57"><path
         id="path59"
         style="fill:none;stroke:#00005d;stroke-width:0.58319998;stroke-linecap:butt;stroke-linejoin:miter;stroke-miterlimit:4;stroke-dasharray:none;stroke-opacity:1"
         d="M 97.148,207.305 L 94.945,209.148 L 96.352,211.262 L 92.141,209.371 L 94.121,213.609 L 89.57,212.148 L 91.18,216.238 L 86.828,214.594 L 88.363,218.871" /></g><g
       id="g3883"
       inkscape:export-xdpi="300"
       inkscape:export-ydpi="300"><path
         id="path27"
         style="fill:url(#radialGradient3844);fill-opacity:1;fill-rule:nonzero;stroke:none;opacity:0.55616438"
         d="M 164.336,117.368 C 164.336,86.403 139.555,61.298 108.984,61.298 C 78.418,61.298 53.637,86.403 53.637,117.368 C 53.637,148.337 78.418,173.438 108.984,173.438 C 139.555,173.438 164.336,148.337 164.336,117.368 z" /><g
         id="g37"
         transform="matrix(0.892647,-1,-0.899531,-0.802964,0,219.2)"><path
           d="M 115.936,34.43 C 115.938,35.508 115.136,36.38 114.147,36.38 C 113.159,36.381 112.359,35.509 112.359,34.428 C 112.358,33.354 113.16,32.478 114.148,32.477 C 115.135,32.479 115.937,33.354 115.936,34.43 z"
           style="fill:none;stroke:#00005d;stroke-width:0.62469202;stroke-linecap:butt;stroke-linejoin:miter;stroke-miterlimit:4;stroke-dasharray:none;stroke-opacity:1"
           id="path39" /></g><g
         id="g41"
         transform="matrix(1,0,0,-1,0,219.2)"><path
           d="M 68.957,143.43 L 66.758,145.27 L 68.16,147.383 L 63.949,145.492 L 65.93,149.734 L 61.379,148.27 L 62.988,152.359 L 58.637,150.719 L 60.172,154.996"
           style="fill:none;stroke:#00005d;stroke-width:0.58319998;stroke-linecap:butt;stroke-linejoin:miter;stroke-miterlimit:4;stroke-dasharray:none;stroke-opacity:1"
           id="path43" /></g><g
         id="g45"
         transform="matrix(0.251663,-1,-0.899531,-0.226378,0,219.2)"><path
           d="M 120.866,-29.604 C 120.865,-28.201 119.826,-27.063 118.541,-27.067 C 117.256,-27.066 116.216,-28.199 116.213,-29.603 C 116.214,-31.005 117.256,-32.138 118.541,-32.139 C 119.826,-32.14 120.867,-31.006 120.866,-29.604 z"
           style="fill:none;stroke:#00005d;stroke-width:0.812051;stroke-linecap:butt;stroke-linejoin:miter;stroke-miterlimit:4;stroke-dasharray:none;stroke-opacity:1"
           id="path47" /></g><g
         id="g49"
         transform="matrix(1,0,0,-1,0,219.2)"><path
           d="M 53.961,112.375 L 51.156,112.988 L 51.422,115.512 L 48.566,111.883 L 48.359,116.559 L 45.004,113.148 L 44.531,117.52 L 41.438,114.047 L 40.816,118.551"
           style="fill:none;stroke:#00005d;stroke-width:0.58319998;stroke-linecap:butt;stroke-linejoin:miter;stroke-miterlimit:4;stroke-dasharray:none;stroke-opacity:1"
           id="path51" /></g><g
         id="g53"
         transform="matrix(0.892647,-1,-0.899531,-0.802964,0,219.2)"><path
           d="M 165.493,52.267 C 165.492,53.347 164.69,54.219 163.702,54.22 C 162.715,54.218 161.915,53.346 161.914,52.268 C 161.912,51.189 162.714,50.313 163.703,50.317 C 164.691,50.317 165.491,51.188 165.493,52.267 z"
           style="fill:none;stroke:#00005d;stroke-width:0.62469202;stroke-linecap:butt;stroke-linejoin:miter;stroke-miterlimit:4;stroke-dasharray:none;stroke-opacity:1"
           id="path55" /></g><g
         id="g61"
         transform="matrix(-0.875683,-1,-0.899531,0.787703,0,219.2)"><path
           d="M 8.072,-80.83 C 8.074,-79.742 7.265,-78.859 6.268,-78.861 C 5.272,-78.86 4.465,-79.742 4.465,-80.827 C 4.463,-81.916 5.272,-82.798 6.269,-82.797 C 7.265,-82.797 8.072,-81.916 8.072,-80.83 z"
           style="fill:none;stroke:#00005d;stroke-width:0.62997299;stroke-linecap:butt;stroke-linejoin:miter;stroke-miterlimit:4;stroke-dasharray:none;stroke-opacity:1"
           id="path63" /></g><g
         id="g65"
         transform="matrix(1,0,0,-1,0,219.2)"><path
           d="M 65.355,68.188 L 63.254,66.23 L 61.332,67.883 L 62.691,63.469 L 58.727,65.957 L 59.621,61.258 L 55.758,63.359 L 56.859,58.84 L 52.797,60.887"
           style="fill:none;stroke:#00005d;stroke-width:0.58319998;stroke-linecap:butt;stroke-linejoin:miter;stroke-miterlimit:4;stroke-dasharray:none;stroke-opacity:1"
           id="path67" /></g><g
         id="g69"
         transform="matrix(-0.849662,1,0.899531,0.764297,0,219.2)"><path
           d="M -39.447,-0.626 C -39.449,0.475 -40.266,1.366 -41.276,1.368 C -42.283,1.367 -43.105,0.474 -43.103,-0.627 C -43.105,-1.728 -42.286,-2.621 -41.276,-2.619 C -40.266,-2.621 -39.447,-1.73 -39.447,-0.626 z"
           style="fill:none;stroke:#00005d;stroke-width:0.63813299;stroke-linecap:butt;stroke-linejoin:miter;stroke-miterlimit:4;stroke-dasharray:none;stroke-opacity:1"
           id="path71" /></g><g
         id="g73"
         transform="matrix(1,0,0,-1,0,219.2)"><path
           d="M 36.512,40.168 L 38.758,38.379 L 37.402,36.234 L 41.566,38.227 L 39.688,33.938 L 44.203,35.516 L 42.695,31.383 L 47.004,33.133 L 45.574,28.82"
           style="fill:none;stroke:#00005d;stroke-width:0.58319998;stroke-linecap:butt;stroke-linejoin:miter;stroke-miterlimit:4;stroke-dasharray:none;stroke-opacity:1"
           id="path75" /></g><g
         id="g77"
         transform="matrix(-1,0.439018,0.394911,0.899531,0,219.2)"><path
           d="M -113.342,27.316 C -113.342,28.641 -114.324,29.715 -115.539,29.713 C -116.75,29.713 -117.733,28.639 -117.735,27.319 C -117.734,25.995 -116.751,24.924 -115.54,24.924 C -114.326,24.922 -113.343,25.996 -113.342,27.316 z"
           style="fill:none;stroke:#00005d;stroke-width:0.76673597;stroke-linecap:butt;stroke-linejoin:miter;stroke-miterlimit:4;stroke-dasharray:none;stroke-opacity:1"
           id="path79" /></g><g
         id="g81"
         transform="matrix(1,0,0,-1,0,219.2)"><path
           d="M 127.438,23.844 L 128.672,21.254 L 126.516,19.918 L 131.133,19.887 L 127.57,16.855 L 132.316,16.293 L 129.152,13.242 L 133.797,12.93 L 130.621,9.676"
           style="fill:none;stroke:#00005d;stroke-width:0.58319998;stroke-linecap:butt;stroke-linejoin:miter;stroke-miterlimit:4;stroke-dasharray:none;stroke-opacity:1"
           id="path83" /></g><g
         id="g85"
         transform="matrix(0.714433,1,0.899531,-0.642654,0,219.2)"><path
           d="M 9.748,209.072 C 9.749,210.248 8.875,211.203 7.8,211.201 C 6.722,211.202 5.847,210.247 5.847,209.074 C 5.848,207.897 6.72,206.944 7.798,206.943 C 8.875,206.943 9.749,207.895 9.748,209.072 z"
           style="fill:none;stroke:#00005d;stroke-width:0.68134999;stroke-linecap:butt;stroke-linejoin:miter;stroke-miterlimit:4;stroke-dasharray:none;stroke-opacity:1"
           id="path87" /></g><g
         id="g89"
         transform="matrix(1,0,0,-1,0,219.2)"><path
           d="M 195.668,128.121 L 197.949,129.863 L 199.699,128.027 L 198.781,132.551 L 202.48,129.684 L 202.055,134.449 L 205.691,131.98 L 205.047,136.586 L 208.883,134.145"
           style="fill:none;stroke:#00005d;stroke-width:0.58319998;stroke-linecap:butt;stroke-linejoin:miter;stroke-miterlimit:4;stroke-dasharray:none;stroke-opacity:1"
           id="path91" /></g><g
         id="g93"
         transform="matrix(0.251663,-1,-0.899531,-0.226378,0,219.2)"><path
           d="M 25.199,-88.708 C 25.198,-87.305 24.16,-86.171 22.874,-86.17 C 21.589,-86.17 20.549,-87.303 20.55,-88.705 C 20.547,-90.109 21.59,-91.246 22.874,-91.243 C 24.159,-91.243 25.199,-90.106 25.199,-88.708 z"
           style="fill:none;stroke:#00005d;stroke-width:0.812051;stroke-linecap:butt;stroke-linejoin:miter;stroke-miterlimit:4;stroke-dasharray:none;stroke-opacity:1"
           id="path95" /></g><g
         id="g97"
         transform="matrix(1,0,0,-1,0,219.2)"><path
           d="M 83.051,3.328 L 80.246,3.945 L 80.512,6.465 L 77.656,2.836 L 77.445,7.512 L 74.094,4.105 L 73.621,8.477 L 70.527,5 L 69.906,9.504"
           style="fill:none;stroke:#00005d;stroke-width:0.58319998;stroke-linecap:butt;stroke-linejoin:miter;stroke-miterlimit:4;stroke-dasharray:none;stroke-opacity:1"
           id="path99" /></g><g
         id="g101"
         transform="matrix(0.251663,-1,-0.899531,-0.226378,0,219.2)"><path
           d="M 83.302,-182.379 C 83.301,-180.977 82.263,-179.843 80.978,-179.842 C 79.692,-179.841 78.649,-180.98 78.651,-182.382 C 78.651,-183.78 79.693,-184.917 80.979,-184.918 C 82.263,-184.915 83.303,-183.781 83.302,-182.379 z"
           style="fill:none;stroke:#00005d;stroke-width:0.812051;stroke-linecap:butt;stroke-linejoin:miter;stroke-miterlimit:4;stroke-dasharray:none;stroke-opacity:1"
           id="path103" /></g><g
         id="g105"
         transform="matrix(1,0,0,-1,0,219.2)"><path
           d="M 181.934,40.227 L 179.129,40.84 L 179.395,43.359 L 176.539,39.734 L 176.332,44.41 L 172.977,41.004 L 172.504,45.375 L 169.414,41.898 L 168.789,46.402"
           style="fill:none;stroke:#00005d;stroke-width:0.58319998;stroke-linecap:butt;stroke-linejoin:miter;stroke-miterlimit:4;stroke-dasharray:none;stroke-opacity:1"
           id="path107" /></g><path
         d="M 16.523,112.489 C 15.262,112.177 13.98,112.958 13.656,114.243 C 13.332,115.528 14.09,116.825 15.352,117.141 C 16.613,117.458 17.898,116.677 18.219,115.391 C 18.543,114.106 17.785,112.809 16.523,112.489 z"
         style="fill:#b3b3b3;fill-opacity:1;fill-rule:nonzero;stroke:none"
         id="path109" /><g
         id="g111"
         transform="matrix(0.251663,-1,-0.899531,-0.226378,0,219.2)"><path
           d="M 104.266,10.802 C 104.261,12.203 103.223,13.337 101.938,13.338 C 100.652,13.339 99.613,12.201 99.613,10.803 C 99.61,9.399 100.653,8.262 101.937,8.266 C 103.223,8.265 104.263,9.398 104.266,10.802 z"
           style="fill:none;stroke:#626d73;stroke-width:0.812051;stroke-linecap:butt;stroke-linejoin:miter;stroke-miterlimit:4;stroke-dasharray:none;stroke-opacity:0.71291899"
           id="path113" /></g><g
         id="g115"
         transform="matrix(1,0,0,-1,0,219.2)"><path
           d="M 13.438,104.918 L 10.633,105.535 L 10.898,108.055 L 8.047,104.426 L 7.836,109.105 L 4.48,105.695 L 4.008,110.066 L 0.914,106.59 L 0.293,111.094"
           style="fill:none;stroke:#626d73;stroke-width:0.58319998;stroke-linecap:butt;stroke-linejoin:miter;stroke-miterlimit:4;stroke-dasharray:none;stroke-opacity:0.71291899"
           id="path117" /></g><path
         d="M 35.711,77.118 C 34.449,76.802 33.164,77.587 32.844,78.872 C 32.52,80.157 33.281,81.454 34.539,81.77 C 35.801,82.087 37.082,81.305 37.406,80.02 C 37.73,78.735 36.969,77.438 35.711,77.118 z"
         style="fill:#b3b3b3;fill-opacity:1;fill-rule:nonzero;stroke:none"
         id="path119" /><g
         id="g121"
         transform="matrix(0.251663,-1,-0.899531,-0.226378,0,219.2)"><path
           d="M 142.071,0.048 C 142.07,1.45 141.028,2.587 139.743,2.584 C 138.458,2.585 137.418,1.447 137.419,0.049 C 137.42,-1.353 138.458,-2.487 139.743,-2.488 C 141.028,-2.489 142.068,-1.351 142.071,0.048 z"
           style="fill:none;stroke:#626d73;stroke-width:0.812051;stroke-linecap:butt;stroke-linejoin:miter;stroke-miterlimit:4;stroke-dasharray:none;stroke-opacity:0.71291899"
           id="path123" /></g><g
         id="g125"
         transform="matrix(1,0,0,-1,0,219.2)"><path
           d="M 32.625,140.293 L 29.82,140.906 L 30.086,143.426 L 27.23,139.801 L 27.02,144.477 L 23.668,141.066 L 23.195,145.438 L 20.102,141.965 L 19.477,146.469"
           style="fill:none;stroke:#626d73;stroke-width:0.58319998;stroke-linecap:butt;stroke-linejoin:miter;stroke-miterlimit:4;stroke-dasharray:none;stroke-opacity:0.71291899"
           id="path127" /></g><path
         d="M 23.312,141.173 C 22.051,140.856 20.77,141.641 20.445,142.927 C 20.121,144.208 20.883,145.509 22.141,145.825 C 23.402,146.141 24.684,145.356 25.012,144.075 C 25.332,142.79 24.574,141.489 23.312,141.173 z"
         style="fill:#b3b3b3;fill-opacity:1;fill-rule:nonzero;stroke:none"
         id="path129" /><g
         id="g131"
         transform="matrix(0.251663,-1,-0.899531,-0.226378,0,219.2)"><path
           d="M 78.897,-3.843 C 78.896,-2.441 77.855,-1.308 76.573,-1.306 C 75.288,-1.305 74.245,-2.444 74.245,-3.842 C 74.246,-5.244 75.287,-6.377 76.573,-6.378 C 77.854,-6.38 78.898,-5.245 78.897,-3.843 z"
           style="fill:none;stroke:#626d73;stroke-width:0.812051;stroke-linecap:butt;stroke-linejoin:miter;stroke-miterlimit:4;stroke-dasharray:none;stroke-opacity:0.71291899"
           id="path133" /></g><g
         id="g135"
         transform="matrix(1,0,0,-1,0,219.2)"><path
           d="M 20.227,76.238 L 17.422,76.852 L 17.688,79.375 L 14.832,75.746 L 14.625,80.422 L 11.27,77.012 L 10.797,81.387 L 7.703,77.91 L 7.078,82.414"
           style="fill:none;stroke:#626d73;stroke-width:0.58319998;stroke-linecap:butt;stroke-linejoin:miter;stroke-miterlimit:4;stroke-dasharray:none;stroke-opacity:0.71291899"
           id="path137" /></g><path
         d="M 202.586,127.841 C 201.324,127.524 200.039,128.305 199.715,129.591 C 199.395,130.876 200.152,132.177 201.414,132.493 C 202.672,132.809 203.957,132.024 204.281,130.739 C 204.605,129.454 203.844,128.157 202.586,127.841 z"
         style="fill:#b3b3b3;fill-opacity:1;fill-rule:nonzero;stroke:none"
         id="path139" /><g
         id="g141"
         transform="matrix(0.251663,-1,-0.899531,-0.226378,0,219.2)"><path
           d="M 133.864,-187.761 C 133.863,-186.359 132.824,-185.221 131.539,-185.22 C 130.255,-185.223 129.211,-186.358 129.212,-187.76 C 129.212,-189.159 130.255,-190.296 131.54,-190.296 C 132.825,-190.297 133.865,-189.16 133.864,-187.761 z"
           style="fill:none;stroke:#626d73;stroke-width:0.812051;stroke-linecap:butt;stroke-linejoin:miter;stroke-miterlimit:4;stroke-dasharray:none;stroke-opacity:0.71291899"
           id="path143" /></g><g
         id="g145"
         transform="matrix(1,0,0,-1,0,219.2)"><path
           d="M 199.5,89.57 L 196.695,90.184 L 196.961,92.707 L 194.105,89.078 L 193.895,93.754 L 190.539,90.348 L 190.07,94.715 L 186.977,91.242 L 186.352,95.746"
           style="fill:none;stroke:#626d73;stroke-width:0.58319998;stroke-linecap:butt;stroke-linejoin:miter;stroke-miterlimit:4;stroke-dasharray:none;stroke-opacity:0.71291899"
           id="path147" /></g><path
         d="M 90.121,185.255 C 88.859,184.934 87.578,185.72 87.254,187.005 C 86.93,188.29 87.691,189.587 88.949,189.903 C 90.211,190.22 91.496,189.438 91.816,188.153 C 92.141,186.868 91.379,185.571 90.121,185.255 z"
         style="fill:#b3b3b3;fill-opacity:1;fill-rule:nonzero;stroke:none"
         id="path149" /><g
         id="g151"
         transform="matrix(0.251663,-1,-0.899531,-0.226378,0,219.2)"><path
           d="M 53.253,-85.288 C 53.255,-83.885 52.214,-82.752 50.928,-82.751 C 49.643,-82.75 48.604,-83.888 48.604,-85.286 C 48.605,-86.688 49.644,-87.826 50.928,-87.823 C 52.213,-87.824 53.254,-86.691 53.253,-85.288 z"
           style="fill:none;stroke:#626d73;stroke-width:0.812051;stroke-linecap:butt;stroke-linejoin:miter;stroke-miterlimit:4;stroke-dasharray:none;stroke-opacity:0.71291899"
           id="path153" /></g><g
         id="g155"
         transform="matrix(1,0,0,-1,0,219.2)"><path
           d="M 87.035,32.16 L 84.23,32.77 L 84.496,35.293 L 81.641,31.668 L 81.43,36.344 L 78.078,32.934 L 77.605,37.305 L 74.512,33.832 L 73.891,38.332"
           style="fill:none;stroke:#626d73;stroke-width:0.58319998;stroke-linecap:butt;stroke-linejoin:miter;stroke-miterlimit:4;stroke-dasharray:none;stroke-opacity:0.71291899"
           id="path157" /></g><path
         d="M 146.129,79.708 C 146.945,78.696 146.766,77.2 145.734,76.372 C 144.703,75.54 143.203,75.688 142.391,76.704 C 141.578,77.716 141.754,79.208 142.785,80.04 C 143.82,80.868 145.316,80.72 146.129,79.708 z"
         style="fill:#b3b3b3;fill-opacity:1;fill-rule:nonzero;stroke:none"
         id="path159" /><g
         id="g161"
         transform="matrix(1,0.80371,0.722962,-0.899531,0,219.2)"><path
           d="M 20.667,173.538 C 20.669,174.665 19.83,175.577 18.799,175.577 C 17.766,175.579 16.927,174.665 16.929,173.538 C 16.93,172.413 17.765,171.501 18.798,171.499 C 19.831,171.501 20.668,172.414 20.667,173.538 z"
           style="fill:none;stroke:#626d73;stroke-width:0.65269399;stroke-linecap:butt;stroke-linejoin:miter;stroke-miterlimit:4;stroke-dasharray:none;stroke-opacity:0.71291899"
           id="path163" /></g><g
         id="g165"
         transform="matrix(1,0,0,-1,0,219.2)"><path
           d="M 145.793,143.043 L 147.52,145.336 L 149.699,144.043 L 147.594,148.148 L 151.934,146.391 L 150.234,150.859 L 154.402,149.465 L 152.539,153.727 L 156.891,152.414"
           style="fill:none;stroke:#626d73;stroke-width:0.58319998;stroke-linecap:butt;stroke-linejoin:miter;stroke-miterlimit:4;stroke-dasharray:none;stroke-opacity:0.71291899"
           id="path167" /></g><path
         d="M 62.504,49.427 C 61.926,48.266 60.492,47.802 59.309,48.391 C 58.121,48.985 57.633,50.403 58.211,51.567 C 58.789,52.731 60.223,53.196 61.406,52.606 C 62.594,52.016 63.086,50.595 62.504,49.427 z"
         style="fill:#b3b3b3;fill-opacity:1;fill-rule:nonzero;stroke:none"
         id="path169" /><g
         id="g171"
         transform="matrix(1,-0.498301,-0.448238,-0.899531,0,219.2)"><path
           d="M 117.842,123.456 C 117.842,124.746 116.879,125.796 115.695,125.796 C 114.507,125.794 113.55,124.748 113.548,123.455 C 113.547,122.162 114.51,121.112 115.693,121.112 C 116.88,121.11 117.842,122.158 117.842,123.456 z"
           style="fill:none;stroke:#626d73;stroke-width:0.74947602;stroke-linecap:butt;stroke-linejoin:miter;stroke-miterlimit:4;stroke-dasharray:none;stroke-opacity:0.71291899"
           id="path173" /></g><g
         id="g175"
         transform="matrix(1,-0.810655,-0.810655,-1,0,219.2)"><path
           d="M 119.309,74.227 L 119.727,76.419 L 121.693,76.267 L 118.814,78.406 L 122.441,78.668 L 119.721,81.201 L 123.105,81.661 L 120.34,83.989 L 123.824,84.567"
           style="fill:none;stroke:#626d73;stroke-width:0.45303801;stroke-linecap:butt;stroke-linejoin:miter;stroke-miterlimit:4;stroke-dasharray:none;stroke-opacity:0.71291899"
           id="path177" /></g><path
         d="M 198.641,49.415 C 199.766,50.059 201.219,49.657 201.875,48.509 C 202.539,47.36 202.156,45.903 201.031,45.255 C 199.902,44.606 198.457,45.012 197.797,46.161 C 197.137,47.309 197.516,48.766 198.641,49.415 z"
         style="fill:#b3b3b3;fill-opacity:1;fill-rule:nonzero;stroke:none"
         id="path179" /><g
         id="g181"
         transform="matrix(-0.574556,1,0.899531,0.51683,0,219.2)"><path
           d="M -213.452,84.489 C -213.455,85.742 -214.383,86.76 -215.53,86.757 C -216.68,86.761 -217.61,85.741 -217.612,84.49 C -217.609,83.236 -216.682,82.222 -215.534,82.221 C -214.385,82.221 -213.453,83.238 -213.452,84.489 z"
           style="fill:none;stroke:#626d73;stroke-width:0.726062;stroke-linecap:butt;stroke-linejoin:miter;stroke-miterlimit:4;stroke-dasharray:none;stroke-opacity:0.71291899"
           id="path183" /></g><g
         id="g185"
         transform="matrix(1,0,0,-1,0,219.2)"><path
           d="M 202.098,170.672 L 204.629,169.32 L 203.688,166.961 L 207.422,169.68 L 206.355,165.121 L 210.508,167.492 L 209.773,163.156 L 213.695,165.66 L 213.074,161.16"
           style="fill:none;stroke:#626d73;stroke-width:0.58319998;stroke-linecap:butt;stroke-linejoin:miter;stroke-miterlimit:4;stroke-dasharray:none;stroke-opacity:0.71291899"
           id="path187" /></g><g
         id="g189"
         transform="matrix(0.40829,-1,-0.899531,-0.367269,0,219.2)"><path
           d="M 124.09,-9.636 C 124.087,-8.299 123.096,-7.216 121.868,-7.213 C 120.642,-7.214 119.649,-8.299 119.649,-9.636 C 119.648,-10.974 120.644,-12.059 121.87,-12.059 C 123.096,-12.058 124.089,-10.973 124.09,-9.636 z"
           style="fill:none;stroke:#00005d;stroke-width:0.775244;stroke-linecap:butt;stroke-linejoin:miter;stroke-miterlimit:4;stroke-dasharray:none;stroke-opacity:1"
           id="path191" /></g><g
         id="g193"
         transform="matrix(1,0,0,-1,0,219.2)"><path
           d="M 56.027,119.211 L 53.336,120.215 L 53.953,122.672 L 50.617,119.484 L 51.066,124.145 L 47.266,121.238 L 47.414,125.633 L 43.863,122.629 L 43.879,127.176"
           style="fill:none;stroke:#00005d;stroke-width:0.58319998;stroke-linecap:butt;stroke-linejoin:miter;stroke-miterlimit:4;stroke-dasharray:none;stroke-opacity:1"
           id="path195" /></g><g
         id="g197"
         transform="matrix(0.492453,-1,-0.899531,-0.442977,0,219.2)"><path
           d="M 126.199,0.415 C 126.198,1.713 125.234,2.762 124.046,2.763 C 122.859,2.76 121.894,1.711 121.894,0.416 C 121.894,-0.882 122.859,-1.93 124.047,-1.931 C 125.235,-1.932 126.198,-0.879 126.199,0.415 z"
           style="fill:none;stroke:#00005d;stroke-width:0.75122201;stroke-linecap:butt;stroke-linejoin:miter;stroke-miterlimit:4;stroke-dasharray:none;stroke-opacity:1"
           id="path199" /></g><g
         id="g201"
         transform="matrix(1,0,0,-1,0,219.2)"><path
           d="M 58.383,125.281 L 55.77,126.469 L 56.559,128.875 L 53.004,125.93 L 53.777,130.543 L 49.785,127.914 L 50.238,132.285 L 46.488,129.539 L 46.82,134.07"
           style="fill:none;stroke:#00005d;stroke-width:0.58319998;stroke-linecap:butt;stroke-linejoin:miter;stroke-miterlimit:4;stroke-dasharray:none;stroke-opacity:1"
           id="path203" /></g><g
         id="g205"
         transform="matrix(0.682203,-1,-0.899531,-0.613662,0,219.2)"><path
           d="M 120.601,18.817 C 120.599,20.01 119.712,20.979 118.618,20.979 C 117.525,20.979 116.638,20.011 116.637,18.816 C 116.639,17.623 117.524,16.657 118.62,16.655 C 119.713,16.655 120.6,17.622 120.601,18.817 z"
           style="fill:none;stroke:#00005d;stroke-width:0.69173503;stroke-linecap:butt;stroke-linejoin:miter;stroke-miterlimit:4;stroke-dasharray:none;stroke-opacity:1"
           id="path207" /></g><g
         id="g209"
         transform="matrix(1,0,0,-1,0,219.2)"><path
           d="M 61.832,131.535 L 59.414,133.074 L 60.531,135.352 L 56.602,132.93 L 58.016,137.395 L 53.691,135.352 L 54.758,139.617 L 50.656,137.422 L 51.625,141.863"
           style="fill:none;stroke:#00005d;stroke-width:0.58319998;stroke-linecap:butt;stroke-linejoin:miter;stroke-miterlimit:4;stroke-dasharray:none;stroke-opacity:1"
           id="path211" /></g><g
         id="g213"
         transform="matrix(-0.268771,-1,-0.899531,0.241768,0,219.2)"><path
           d="M 67.309,-84.207 C 67.308,-82.808 66.272,-81.678 64.991,-81.678 C 63.714,-81.678 62.675,-82.809 62.677,-84.204 C 62.676,-85.598 63.711,-86.732 64.993,-86.729 C 66.273,-86.733 67.308,-85.601 67.309,-84.207 z"
           style="fill:none;stroke:#00005d;stroke-width:0.80867201;stroke-linecap:butt;stroke-linejoin:miter;stroke-miterlimit:4;stroke-dasharray:none;stroke-opacity:1"
           id="path215" /></g><g
         id="g217"
         transform="matrix(1,0,0,-1,0,219.2)"><path
           d="M 55.832,84.602 L 53.086,83.77 L 52.086,86.102 L 51.363,81.543 L 48.898,85.523 L 47.633,80.91 L 45.09,84.5 L 44.082,79.957 L 41.344,83.586"
           style="fill:none;stroke:#00005d;stroke-width:0.58319998;stroke-linecap:butt;stroke-linejoin:miter;stroke-miterlimit:4;stroke-dasharray:none;stroke-opacity:1"
           id="path219" /></g><g
         id="g221"
         transform="matrix(-0.122078,-1,-0.899531,0.109813,0,219.2)"><path
           d="M 86.169,-74.548 C 86.171,-73.111 85.107,-71.95 83.79,-71.95 C 82.474,-71.949 81.409,-73.112 81.412,-74.545 C 81.41,-75.982 82.474,-77.143 83.79,-77.144 C 85.107,-77.144 86.172,-75.982 86.169,-74.548 z"
           style="fill:none;stroke:#00005d;stroke-width:0.83120102;stroke-linecap:butt;stroke-linejoin:miter;stroke-miterlimit:4;stroke-dasharray:none;stroke-opacity:1"
           id="path223" /></g><g
         id="g225"
         transform="matrix(1,0,0,-1,0,219.2)"><path
           d="M 54.305,91.578 L 51.465,91.141 L 50.805,93.59 L 49.445,89.176 L 47.57,93.465 L 45.664,89.078 L 43.652,92.988 L 42.016,88.633 L 39.816,92.609"
           style="fill:none;stroke:#00005d;stroke-width:0.58319998;stroke-linecap:butt;stroke-linejoin:miter;stroke-miterlimit:4;stroke-dasharray:none;stroke-opacity:1"
           id="path227" /></g><g
         id="g229"
         transform="matrix(-5.1563e-2,-1,-0.899531,4.63825e-2,0,219.2)"><path
           d="M 97.503,-67.653 C 97.503,-66.207 96.429,-65.038 95.108,-65.04 C 93.784,-65.038 92.71,-66.21 92.714,-67.652 C 92.713,-69.093 93.784,-70.262 95.108,-70.264 C 96.429,-70.262 97.502,-69.094 97.503,-67.653 z"
           style="fill:none;stroke:#00005d;stroke-width:0.83626097;stroke-linecap:butt;stroke-linejoin:miter;stroke-miterlimit:4;stroke-dasharray:none;stroke-opacity:1"
           id="path231" /></g><g
         id="g233"
         transform="matrix(1,0,0,-1,0,219.2)"><path
           d="M 53.402,98.023 L 50.543,97.785 L 50.055,100.273 L 48.391,95.969 L 46.816,100.375 L 44.609,96.133 L 42.879,100.176 L 40.941,95.945 L 39.023,100.066"
           style="fill:none;stroke:#00005d;stroke-width:0.58319998;stroke-linecap:butt;stroke-linejoin:miter;stroke-miterlimit:4;stroke-dasharray:none;stroke-opacity:1"
           id="path235" /></g><g
         id="g237"
         transform="matrix(8.98123e-2,-1,-0.899531,-8.07889e-2,0,219.2)"><path
           d="M 111.556,-51.269 C 111.557,-49.827 110.486,-48.661 109.17,-48.662 C 107.849,-48.664 106.78,-49.83 106.779,-51.268 C 106.782,-52.709 107.849,-53.875 109.169,-53.874 C 110.489,-53.872 111.559,-52.706 111.556,-51.269 z"
           style="fill:none;stroke:#00005d;stroke-width:0.83401501;stroke-linecap:butt;stroke-linejoin:miter;stroke-miterlimit:4;stroke-dasharray:none;stroke-opacity:1"
           id="path239" /></g><g
         id="g241"
         transform="matrix(1,0,0,-1,0,219.2)"><path
           d="M 53.367,105.164 L 50.504,105.332 L 50.371,107.867 L 48.117,103.836 L 47.18,108.422 L 44.398,104.531 L 43.25,108.777 L 40.738,104.859 L 39.418,109.211"
           style="fill:none;stroke:#00005d;stroke-width:0.58319998;stroke-linecap:butt;stroke-linejoin:miter;stroke-miterlimit:4;stroke-dasharray:none;stroke-opacity:1"
           id="path243" /></g><path
         d="M 140.684,75.555 C 141.5,74.544 141.32,73.048 140.289,72.22 C 139.258,71.391 137.762,71.54 136.945,72.552 C 136.133,73.567 136.309,75.059 137.34,75.887 C 138.375,76.72 139.871,76.571 140.684,75.555 z"
         style="fill:#b3b3b3;fill-opacity:1;fill-rule:nonzero;stroke:none"
         id="path245" /><g
         id="g247"
         transform="matrix(1,0.80371,0.722962,-0.899531,0,219.2)"><path
           d="M 15.332,173.387 C 15.334,174.513 14.494,175.426 13.463,175.426 C 12.432,175.425 11.596,174.513 11.594,173.386 C 11.596,172.259 12.431,171.347 13.462,171.347 C 14.497,171.347 15.334,172.26 15.332,173.387 z"
           style="fill:none;stroke:#626d73;stroke-width:0.65269399;stroke-linecap:butt;stroke-linejoin:miter;stroke-miterlimit:4;stroke-dasharray:none;stroke-opacity:0.71291899"
           id="path249" /></g><g
         id="g251"
         transform="matrix(1,0,0,-1,0,219.2)"><path
           d="M 140.348,147.191 L 142.074,149.488 L 144.254,148.191 L 142.152,152.301 L 146.488,150.539 L 144.789,155.012 L 148.961,153.613 L 147.094,157.875 L 151.445,156.562"
           style="fill:none;stroke:#626d73;stroke-width:0.58319998;stroke-linecap:butt;stroke-linejoin:miter;stroke-miterlimit:4;stroke-dasharray:none;stroke-opacity:0.71291899"
           id="path253" /></g><path
         d="M 154.152,90.266 C 155.215,89.516 155.453,88.032 154.691,86.95 C 153.93,85.868 152.449,85.598 151.387,86.348 C 150.324,87.098 150.082,88.583 150.848,89.665 C 151.609,90.747 153.09,91.016 154.152,90.266 z"
         style="fill:#b3b3b3;fill-opacity:1;fill-rule:nonzero;stroke:none"
         id="path255" /><g
         id="g257"
         transform="matrix(0.706056,1,0.899531,-0.635119,0,219.2)"><path
           d="M -13.409,181.895 C -13.409,183.076 -14.287,184.03 -15.368,184.032 C -16.449,184.033 -17.326,183.076 -17.327,181.895 C -17.327,180.714 -16.45,179.757 -15.367,179.758 C -14.286,179.756 -13.409,180.713 -13.409,181.895 z"
           style="fill:none;stroke:#626d73;stroke-width:0.68405002;stroke-linecap:butt;stroke-linejoin:miter;stroke-miterlimit:4;stroke-dasharray:none;stroke-opacity:0.71291899"
           id="path259" /></g><g
         id="g261"
         transform="matrix(1,0,0,-1,0,219.2)"><path
           d="M 154.805,132.441 L 157.098,134.168 L 158.836,132.324 L 157.945,136.852 L 161.629,133.965 L 161.23,138.73 L 164.852,136.242 L 164.23,140.852 L 168.055,138.391"
           style="fill:none;stroke:#626d73;stroke-width:0.58319998;stroke-linecap:butt;stroke-linejoin:miter;stroke-miterlimit:4;stroke-dasharray:none;stroke-opacity:0.71291899"
           id="path263" /></g><path
         d="M 150.062,84.778 C 151.121,84.028 151.363,82.544 150.602,81.462 C 149.836,80.38 148.355,80.11 147.293,80.86 C 146.234,81.606 145.992,83.095 146.758,84.177 C 147.52,85.259 149,85.528 150.062,84.778 z"
         style="fill:#b3b3b3;fill-opacity:1;fill-rule:nonzero;stroke:none"
         id="path265" /><g
         id="g267"
         transform="matrix(0.706056,1,0.899531,-0.635119,0,219.2)"><path
           d="M -18.998,181.735 C -18.998,182.916 -19.877,183.871 -20.958,183.872 C -22.04,183.871 -22.918,182.914 -22.92,181.735 C -22.916,180.555 -22.04,179.597 -20.957,179.599 C -19.876,179.597 -18.999,180.554 -18.998,181.735 z"
           style="fill:none;stroke:#626d73;stroke-width:0.68405002;stroke-linecap:butt;stroke-linejoin:miter;stroke-miterlimit:4;stroke-dasharray:none;stroke-opacity:0.71291899"
           id="path269" /></g><g
         id="g271"
         transform="matrix(1,0,0,-1,0,219.2)"><path
           d="M 150.711,137.93 L 153.008,139.656 L 154.746,137.812 L 153.855,142.344 L 157.539,139.453 L 157.137,144.219 L 160.762,141.73 L 160.141,146.34 L 163.965,143.879"
           style="fill:none;stroke:#626d73;stroke-width:0.58319998;stroke-linecap:butt;stroke-linejoin:miter;stroke-miterlimit:4;stroke-dasharray:none;stroke-opacity:0.71291899"
           id="path273" /></g><path
         d="M 160.891,102.446 C 162.043,101.845 162.484,100.407 161.875,99.231 C 161.262,98.055 159.832,97.591 158.68,98.188 C 157.523,98.79 157.086,100.227 157.695,101.403 C 158.309,102.579 159.738,103.048 160.891,102.446 z"
         style="fill:#b3b3b3;fill-opacity:1;fill-rule:nonzero;stroke:none"
         id="path275" /><g
         id="g277"
         transform="matrix(0.520032,1,0.899531,-0.467785,0,219.2)"><path
           d="M -26.043,193.916 C -26.045,195.198 -26.995,196.239 -28.17,196.241 C -29.347,196.239 -30.298,195.199 -30.299,193.919 C -30.299,192.634 -29.347,191.597 -28.172,191.595 C -26.995,191.596 -26.041,192.634 -26.043,193.916 z"
           style="fill:none;stroke:#626d73;stroke-width:0.74291998;stroke-linecap:butt;stroke-linejoin:miter;stroke-miterlimit:4;stroke-dasharray:none;stroke-opacity:0.71291899"
           id="path279" /></g><g
         id="g281"
         transform="matrix(1,0,0,-1,0,219.2)"><path
           d="M 162.012,120.141 L 164.516,121.543 L 165.992,119.48 L 165.719,124.09 L 168.98,120.734 L 169.223,125.508 L 172.477,122.551 L 172.484,127.207 L 175.941,124.254"
           style="fill:none;stroke:#626d73;stroke-width:0.58319998;stroke-linecap:butt;stroke-linejoin:miter;stroke-miterlimit:4;stroke-dasharray:none;stroke-opacity:0.71291899"
           id="path283" /></g><path
         d="M 157.578,96.454 C 158.73,95.856 159.168,94.415 158.559,93.243 C 157.949,92.067 156.52,91.598 155.363,92.2 C 154.211,92.798 153.773,94.239 154.383,95.415 C 154.996,96.587 156.426,97.055 157.578,96.454 z"
         style="fill:#b3b3b3;fill-opacity:1;fill-rule:nonzero;stroke:none"
         id="path285" /><g
         id="g287"
         transform="matrix(0.520032,1,0.899531,-0.467785,0,219.2)"><path
           d="M -32.115,193.744 C -32.114,195.025 -33.07,196.064 -34.245,196.065 C -35.416,196.065 -36.371,195.028 -36.37,193.742 C -36.372,192.462 -35.416,191.423 -34.241,191.421 C -33.068,191.425 -32.114,192.462 -32.115,193.744 z"
           style="fill:none;stroke:#626d73;stroke-width:0.74291998;stroke-linecap:butt;stroke-linejoin:miter;stroke-miterlimit:4;stroke-dasharray:none;stroke-opacity:0.71291899"
           id="path289" /></g><g
         id="g291"
         transform="matrix(1,0,0,-1,0,219.2)"><path
           d="M 158.695,126.133 L 161.199,127.535 L 162.676,125.473 L 162.402,130.082 L 165.664,126.723 L 165.91,131.5 L 169.168,128.543 L 169.172,133.195 L 172.625,130.242"
           style="fill:none;stroke:#626d73;stroke-width:0.58319998;stroke-linecap:butt;stroke-linejoin:miter;stroke-miterlimit:4;stroke-dasharray:none;stroke-opacity:0.71291899"
           id="path293" /></g><path
         d="M 162.609,115.341 C 163.879,115.083 164.699,113.817 164.438,112.52 C 164.172,111.223 162.926,110.384 161.652,110.641 C 160.379,110.899 159.559,112.161 159.824,113.458 C 160.086,114.759 161.332,115.598 162.609,115.341 z"
         style="fill:#b3b3b3;fill-opacity:1;fill-rule:nonzero;stroke:none"
         id="path295" /><g
         id="g297"
         transform="matrix(0.203258,1,0.899531,-0.182837,0,219.2)"><path
           d="M -67.998,196.136 C -67.997,197.552 -69.05,198.697 -70.35,198.7 C -71.647,198.698 -72.697,197.55 -72.698,196.134 C -72.699,194.719 -71.647,193.569 -70.35,193.571 C -69.05,193.569 -68,194.717 -67.998,196.136 z"
           style="fill:none;stroke:#626d73;stroke-width:0.82059199;stroke-linecap:butt;stroke-linejoin:miter;stroke-miterlimit:4;stroke-dasharray:none;stroke-opacity:0.71291899"
           id="path299" /></g><g
         id="g301"
         transform="matrix(1,0,0,-1,0,219.2)"><path
           d="M 164.617,106.805 L 167.41,107.465 L 168.262,105.078 L 169.266,109.582 L 171.477,105.457 L 173.027,109.98 L 175.344,106.242 L 176.633,110.711 L 179.141,106.922"
           style="fill:none;stroke:#626d73;stroke-width:0.58319998;stroke-linecap:butt;stroke-linejoin:miter;stroke-miterlimit:4;stroke-dasharray:none;stroke-opacity:0.71291899"
           id="path303" /></g><path
         d="M 161.07,108.669 C 162.348,108.411 163.164,107.149 162.902,105.852 C 162.637,104.552 161.391,103.712 160.117,103.97 C 158.844,104.227 158.023,105.489 158.289,106.786 C 158.551,108.087 159.797,108.927 161.07,108.669 z"
         style="fill:#b3b3b3;fill-opacity:1;fill-rule:nonzero;stroke:none"
         id="path305" /><g
         id="g307"
         transform="matrix(0.203258,1,0.899531,-0.182837,0,219.2)"><path
           d="M -74.706,195.941 C -74.704,197.361 -75.757,198.506 -77.053,198.508 C -78.354,198.507 -79.404,197.359 -79.405,195.943 C -79.406,194.528 -78.354,193.378 -77.057,193.38 C -75.757,193.377 -74.707,194.525 -74.706,195.941 z"
           style="fill:none;stroke:#626d73;stroke-width:0.82059199;stroke-linecap:butt;stroke-linejoin:miter;stroke-miterlimit:4;stroke-dasharray:none;stroke-opacity:0.71291899"
           id="path309" /></g><g
         id="g311"
         transform="matrix(1,0,0,-1,0,219.2)"><path
           d="M 163.082,113.477 L 165.875,114.137 L 166.727,111.75 L 167.73,116.254 L 169.941,112.129 L 171.492,116.652 L 173.809,112.914 L 175.094,117.383 L 177.605,113.594"
           style="fill:none;stroke:#626d73;stroke-width:0.58319998;stroke-linecap:butt;stroke-linejoin:miter;stroke-miterlimit:4;stroke-dasharray:none;stroke-opacity:0.71291899"
           id="path313" /></g><path
         d="M 146.047,155.845 C 147.078,156.634 148.566,156.419 149.371,155.364 C 150.172,154.313 149.984,152.817 148.949,152.032 C 147.918,151.243 146.43,151.458 145.625,152.512 C 144.824,153.563 145.012,155.059 146.047,155.845 z"
         style="fill:#b3b3b3;fill-opacity:1;fill-rule:nonzero;stroke:none"
         id="path315" /><g
         id="g317"
         transform="matrix(-0.762013,1,0.899531,0.685454,0,219.2)"><path
           d="M -110.488,68.762 C -110.486,69.91 -111.34,70.841 -112.395,70.842 C -113.446,70.842 -114.302,69.908 -114.3,68.76 C -114.302,67.612 -113.448,66.68 -112.393,66.679 C -111.342,66.679 -110.486,67.613 -110.488,68.762 z"
           style="fill:none;stroke:#626d73;stroke-width:0.66603702;stroke-linecap:butt;stroke-linejoin:miter;stroke-miterlimit:4;stroke-dasharray:none;stroke-opacity:0.71291899"
           id="path319" /></g><g
         id="g321"
         transform="matrix(1,0,0,-1,0,219.2)"><path
           d="M 149.586,63.785 L 151.922,62.117 L 150.684,59.902 L 154.738,62.113 L 153.09,57.73 L 157.516,59.547 L 156.227,55.34 L 160.438,57.316 L 159.238,52.934"
           style="fill:none;stroke:#626d73;stroke-width:0.58319998;stroke-linecap:butt;stroke-linejoin:miter;stroke-miterlimit:4;stroke-dasharray:none;stroke-opacity:0.71291899"
           id="path323" /></g><path
         d="M 150.051,150.298 C 151.086,151.083 152.574,150.868 153.379,149.813 C 154.18,148.762 153.992,147.266 152.961,146.481 C 151.926,145.692 150.438,145.907 149.637,146.962 C 148.832,148.016 149.02,149.509 150.051,150.298 z"
         style="fill:#b3b3b3;fill-opacity:1;fill-rule:nonzero;stroke:none"
         id="path325" /><g
         id="g327"
         transform="matrix(-0.762013,1,0.899531,0.685454,0,219.2)"><path
           d="M -115.928,68.605 C -115.93,69.754 -116.784,70.685 -117.839,70.686 C -118.89,70.686 -119.746,69.752 -119.745,68.606 C -119.745,67.455 -118.892,66.524 -117.839,66.526 C -116.786,66.523 -115.93,67.457 -115.928,68.605 z"
           style="fill:none;stroke:#626d73;stroke-width:0.66603702;stroke-linecap:butt;stroke-linejoin:miter;stroke-miterlimit:4;stroke-dasharray:none;stroke-opacity:0.71291899"
           id="path329" /></g><g
         id="g331"
         transform="matrix(1,0,0,-1,0,219.2)"><path
           d="M 153.594,69.336 L 155.93,67.664 L 154.691,65.453 L 158.746,67.664 L 157.098,63.281 L 161.523,65.094 L 160.234,60.891 L 164.445,62.867 L 163.246,58.484"
           style="fill:none;stroke:#626d73;stroke-width:0.58319998;stroke-linecap:butt;stroke-linejoin:miter;stroke-miterlimit:4;stroke-dasharray:none;stroke-opacity:0.71291899"
           id="path333" /></g><path
         d="M 135.695,164.137 C 136.473,165.18 137.965,165.384 139.023,164.595 C 140.086,163.802 140.316,162.313 139.539,161.27 C 138.766,160.227 137.273,160.028 136.211,160.821 C 135.152,161.61 134.918,163.095 135.695,164.137 z"
         style="fill:#b3b3b3;fill-opacity:1;fill-rule:nonzero;stroke:none"
         id="path335" /><g
         id="g337"
         transform="matrix(-1,0.745529,0.670626,0.899531,0,219.2)"><path
           d="M -113.604,32.942 C -113.603,34.101 -114.465,35.041 -115.524,35.041 C -116.587,35.041 -117.448,34.1 -117.451,32.943 C -117.451,31.784 -116.587,30.846 -115.524,30.847 C -114.466,30.847 -113.604,31.783 -113.604,32.942 z"
           style="fill:none;stroke:#626d73;stroke-width:0.67133498;stroke-linecap:butt;stroke-linejoin:miter;stroke-miterlimit:4;stroke-dasharray:none;stroke-opacity:0.71291899"
           id="path339" /></g><g
         id="g341"
         transform="matrix(1,0,0,-1,0,219.2)"><path
           d="M 139.219,54.5 L 141.004,52.254 L 139.207,50.465 L 143.711,51.477 L 140.918,47.715 L 145.672,48.242 L 143.277,44.555 L 147.871,45.293 L 145.512,41.41"
           style="fill:none;stroke:#626d73;stroke-width:0.58319998;stroke-linecap:butt;stroke-linejoin:miter;stroke-miterlimit:4;stroke-dasharray:none;stroke-opacity:0.71291899"
           id="path343" /></g><path
         d="M 141.078,159.907 C 141.855,160.95 143.344,161.153 144.406,160.36 C 145.469,159.567 145.699,158.083 144.922,157.04 C 144.145,155.997 142.656,155.794 141.594,156.587 C 140.531,157.38 140.301,158.864 141.078,159.907 z"
         style="fill:#b3b3b3;fill-opacity:1;fill-rule:nonzero;stroke:none"
         id="path345" /><g
         id="g347"
         transform="matrix(-1,0.745529,0.670626,0.899531,0,219.2)"><path
           d="M -119.091,32.787 C -119.09,33.946 -119.95,34.884 -121.013,34.883 C -122.076,34.883 -122.935,33.945 -122.935,32.785 C -122.938,31.628 -122.076,30.688 -121.013,30.689 C -119.95,30.689 -119.091,31.627 -119.091,32.787 z"
           style="fill:none;stroke:#626d73;stroke-width:0.67133498;stroke-linecap:butt;stroke-linejoin:miter;stroke-miterlimit:4;stroke-dasharray:none;stroke-opacity:0.71291899"
           id="path349" /></g><g
         id="g351"
         transform="matrix(1,0,0,-1,0,219.2)"><path
           d="M 144.598,58.73 L 146.387,56.484 L 144.59,54.695 L 149.094,55.707 L 146.301,51.949 L 151.055,52.473 L 148.66,48.785 L 153.254,49.527 L 150.895,45.641"
           style="fill:none;stroke:#626d73;stroke-width:0.58319998;stroke-linecap:butt;stroke-linejoin:miter;stroke-miterlimit:4;stroke-dasharray:none;stroke-opacity:0.71291899"
           id="path353" /></g><g
         transform="translate(9.0147186,11.861472)"
         id="g3846"><path
           id="path385"
           style="fill:#b10000;fill-opacity:1;fill-rule:nonzero;stroke:#000000;stroke-width:0.80000001;stroke-miterlimit:4;stroke-dasharray:none;stroke-opacity:1"
           d="M 85.117,128.774 C 84.406,127.688 82.93,127.391 81.824,128.118 C 80.715,128.845 80.395,130.313 81.105,131.399 C 81.816,132.489 83.293,132.782 84.402,132.055 C 85.508,131.329 85.832,129.86 85.117,128.774 z" /><g
           transform="matrix(1,0,0,-1,0,219.2)"
           id="g391"
           style="stroke:#000000;stroke-opacity:1"><path
             id="path393"
             style="fill:none;stroke:#000000;stroke-width:0.58319998;stroke-linecap:butt;stroke-linejoin:miter;stroke-miterlimit:4;stroke-dasharray:none;stroke-opacity:1"
             d="M 81.637,91.203 L 79.988,93.555 L 81.895,95.227 L 77.34,94.496 L 80.352,98.078 L 75.574,97.844 L 78.191,101.379 L 73.562,100.918 L 76.156,104.652" /></g></g><g
         id="g395"
         transform="matrix(1,0,0,-0.958366,0,219.2)"><path
           d="M 159.262,78.38 C 163.727,86.581 166.227,95.813 166.539,105.278"
           style="fill:none;stroke:#000002;stroke-width:0.81719202;stroke-linecap:butt;stroke-linejoin:miter;stroke-miterlimit:3.79999995;stroke-dasharray:none;stroke-opacity:1"
           id="path397" /></g><g
         id="g399"
         transform="matrix(0.544717,-0.958366,-1,-0.522039,0,219.2)"><path
           d="M 130.437,-89.894 L 131.671,-91.128 L 127.347,-89.894 L 131.675,-88.657 L 130.437,-89.894 z"
           style="fill:#000000;fill-opacity:1;fill-rule:evenodd;stroke:#000000;stroke-width:0.717632;stroke-linecap:butt;stroke-linejoin:miter;stroke-miterlimit:4;stroke-dasharray:none;stroke-opacity:1"
           id="path401" /></g><text
         y="-200.09383"
         x="10.685812"
         transform="scale(1,-1)"
         id="text403"><tspan
           style="font-size:8.26496983px;font-variant:normal;font-weight:normal;writing-mode:lr-tb;fill:#000000;fill-opacity:1;fill-rule:nonzero;stroke:none;font-family:FreeSans;-inkscape-font-specification:FreeSans"
           x="10.685812 15.239811 19.843399 21.678223 25.810707 28.108368 30.315115 32.918583 37.439522 41.877811 45.927647 50.531235 55.052174 57.812672"
           y="-200.09383"
           sodipodi:role="line"
           id="tspan405">bulk transport</tspan><tspan
           style="font-size:8.26496983px;font-variant:normal;font-weight:normal;writing-mode:lr-tb;fill:#000000;fill-opacity:1;fill-rule:nonzero;stroke:none;font-family:FreeSans;-inkscape-font-specification:FreeSans"
           x="73.115395 77.669395 82.272987 84.107803 88.240295 90.537956 92.744698 95.348167 99.869102 104.3074 108.35723 112.96082 117.48175 120.24226"
           y="-105.77419"
           sodipodi:role="line"
           id="tspan407">bulk transport</tspan><tspan
           style="font-size:8.26496983px;font-variant:normal;font-weight:normal;writing-mode:lr-tb;fill:#000000;fill-opacity:1;fill-rule:nonzero;stroke:none;font-family:FreeSans;-inkscape-font-specification:FreeSans"
           x="165.32765 169.3279 173.93149 176.69199 178.82434 183.42793 187.56042"
           y="-143.21609"
           sodipodi:role="line"
           id="tspan409">surface</tspan><tspan
           style="font-size:8.26496983px;font-variant:normal;font-weight:normal;writing-mode:lr-tb;fill:#000000;fill-opacity:1;fill-rule:nonzero;stroke:none;font-family:FreeSans;-inkscape-font-specification:FreeSans"
           x="165.32765 167.61705 169.83206 172.42726 176.9482 181.39476 185.4446 190.03992 194.56085 197.32135"
           y="-132.88489"
           sodipodi:role="line"
           id="tspan411"> transport</tspan><tspan
           style="font-size:8.26496983px;font-variant:normal;font-weight:normal;writing-mode:lr-tb;fill:#000000;fill-opacity:1;fill-rule:nonzero;stroke:none;font-family:FreeSans;-inkscape-font-specification:FreeSans"
           x="11.537394 16.140982 20.736305 24.86879 29.389729 32.15023 36.671169 38.96883 40.803654 45.324593"
           y="-43.886768"
           sodipodi:role="line"
           id="tspan413">adsorption</tspan></text>
<path
         d="M 149.375,117.661 L 149.074,117.661 C 149.016,117.384 148.961,117.126 148.844,116.868 C 148.789,116.692 148.75,116.591 148.051,116.591 L 147.082,116.591 C 147.254,117.212 147.613,117.747 148.164,118.47 C 148.73,119.247 149.223,120.005 149.223,120.884 C 149.223,122.399 147.594,123.641 145.547,123.641 C 143.48,123.641 141.867,122.384 141.867,120.884 C 141.867,120.005 142.359,119.247 142.93,118.47 C 143.461,117.747 143.84,117.212 144.012,116.591 L 143.043,116.591 C 142.344,116.591 142.305,116.692 142.246,116.848 C 142.133,117.106 142.078,117.384 142.02,117.661 L 141.715,117.661 L 142.113,115.884 L 144.047,115.884 C 144.312,115.884 144.352,115.884 144.352,116.106 C 144.352,116.884 143.973,117.848 143.707,118.555 C 143.441,119.192 143.102,120.055 143.102,120.884 C 143.102,122.641 144.445,123.399 145.547,123.399 C 146.703,123.399 147.992,122.606 147.992,120.884 C 147.992,120.055 147.652,119.227 147.309,118.333 C 147.121,117.868 146.742,116.868 146.742,116.106 C 146.742,115.884 146.777,115.884 147.043,115.884 L 148.977,115.884 L 149.375,117.661 z"
         style="fill:#000000;fill-opacity:1;fill-rule:nonzero;stroke:none"
         id="path415" /><path
         d="M 152.742,119.13 C 152.742,119.337 152.742,119.337 152.496,119.337 C 151.945,118.856 151.188,118.856 150.844,118.856 L 150.844,118.579 C 151.035,118.579 151.602,118.579 152.059,118.786 L 152.059,114.872 C 152.059,114.614 152.059,114.512 151.223,114.512 L 150.902,114.512 L 150.902,114.235 C 151.055,114.235 152.098,114.27 152.398,114.27 C 152.664,114.27 153.727,114.235 153.918,114.235 L 153.918,114.512 L 153.594,114.512 C 152.742,114.512 152.742,114.614 152.742,114.872 L 152.742,119.13 z"
         style="fill:#000000;fill-opacity:1;fill-rule:nonzero;stroke:none"
         id="path417" /><path
         d="M 170.68,58.645 L 170.375,58.645 C 170.316,58.368 170.262,58.11 170.148,57.852 C 170.09,57.68 170.051,57.575 169.352,57.575 L 168.383,57.575 C 168.555,58.196 168.914,58.731 169.465,59.454 C 170.035,60.231 170.527,60.989 170.527,61.868 C 170.527,63.384 168.895,64.626 166.848,64.626 C 164.781,64.626 163.172,63.368 163.172,61.868 C 163.172,60.989 163.664,60.231 164.23,59.454 C 164.762,58.731 165.141,58.196 165.312,57.575 L 164.348,57.575 C 163.645,57.575 163.605,57.68 163.551,57.833 C 163.438,58.095 163.379,58.368 163.32,58.645 L 163.02,58.645 L 163.418,56.868 L 165.352,56.868 C 165.617,56.868 165.652,56.868 165.652,57.095 C 165.652,57.868 165.273,58.833 165.008,59.54 C 164.742,60.177 164.402,61.04 164.402,61.868 C 164.402,63.626 165.75,64.384 166.848,64.384 C 168.004,64.384 169.293,63.591 169.293,61.868 C 169.293,61.04 168.953,60.212 168.613,59.317 C 168.422,58.852 168.043,57.852 168.043,57.095 C 168.043,56.868 168.082,56.868 168.348,56.868 L 170.281,56.868 L 170.68,58.645 z"
         style="fill:#000000;fill-opacity:1;fill-rule:nonzero;stroke:none"
         id="path419" /><path
         d="M 175.484,56.618 L 175.199,56.618 C 175.18,56.446 175.086,55.997 174.973,55.927 C 174.914,55.876 174.27,55.876 174.137,55.876 L 172.582,55.876 C 173.473,56.583 173.777,56.805 174.27,57.169 C 174.898,57.618 175.484,58.098 175.484,58.825 C 175.484,59.755 174.594,60.321 173.512,60.321 C 172.469,60.321 171.75,59.649 171.75,58.942 C 171.75,58.563 172.109,58.512 172.203,58.512 C 172.395,58.512 172.641,58.649 172.641,58.927 C 172.641,59.063 172.582,59.341 172.148,59.341 C 172.414,59.876 172.98,60.048 173.379,60.048 C 174.234,60.048 174.668,59.442 174.668,58.825 C 174.668,58.149 174.137,57.634 173.871,57.36 L 171.844,55.512 C 171.75,55.446 171.75,55.427 171.75,55.22 L 175.238,55.22 L 175.484,56.618 z"
         style="fill:#000000;fill-opacity:1;fill-rule:nonzero;stroke:none"
         id="path421" /><path
         d="M 137.695,56.43 C 137.809,56.536 137.809,56.587 137.809,56.602 C 137.809,56.657 137.77,56.723 137.734,56.759 L 135.25,60.016 L 138.035,60.016 C 140.082,60.016 140.691,59.622 140.938,57.88 L 141.238,57.88 L 140.898,60.36 L 134.188,60.36 C 133.902,60.36 133.883,60.36 133.883,60.102 L 136.898,56.122 L 134.016,53.137 C 133.883,53.02 133.883,53.001 133.883,52.966 C 133.883,52.845 134.016,52.845 134.188,52.845 L 140.898,52.845 L 141.238,55.45 L 140.938,55.45 C 140.727,53.606 139.895,53.313 137.996,53.313 L 134.66,53.313 L 137.695,56.43 z"
         style="fill:#000000;fill-opacity:1;fill-rule:nonzero;stroke:none"
         id="path423" /><path
         d="M 135.391,62.399 L 132.914,67.661"
         style="fill:none;stroke:#000000;stroke-width:0.80000001;stroke-linecap:butt;stroke-linejoin:miter;stroke-miterlimit:4;stroke-dasharray:none;stroke-opacity:1"
         id="path425" /><text
         y="-30.795572"
         x="112.44009"
         transform="scale(1,-1)"
         id="text427"><tspan
           style="font-size:8.26496983px;font-variant:normal;font-weight:normal;writing-mode:lr-tb;fill:#000000;fill-opacity:1;fill-rule:nonzero;stroke:none;font-family:FreeSans;-inkscape-font-specification:FreeSans"
           x="112.44009 117.04368 121.56461 125.6971 130.21803 132.97855 137.49121 139.78888 141.63196 146.14464"
           y="-30.795572"
           sodipodi:role="line"
           id="tspan429">desorption</tspan></text>
<path
         d="M 91.555,64.575 C 98.668,63.02 104.559,58.348 108.477,48.634"
         style="fill:none;stroke:#000000;stroke-width:0.80000001;stroke-linecap:butt;stroke-linejoin:miter;stroke-miterlimit:4;stroke-dasharray:none;stroke-opacity:1"
         id="path431" /><g
         id="g433"
         transform="matrix(-0.403326,1,-1,-0.403326,0,219.2)"><path
           d="M -181.364,-34.132 L -179.881,-35.617 L -185.075,-34.132 L -179.879,-32.649 L -181.364,-34.132 z"
           style="fill:#000000;fill-opacity:1;fill-rule:evenodd;stroke:#000000;stroke-width:0.37096399;stroke-linecap:butt;stroke-linejoin:miter;stroke-miterlimit:4;stroke-dasharray:none;stroke-opacity:1"
           id="path435" /></g><path
         d="M 92.098,66.391 C 91.52,65.227 90.086,64.762 88.902,65.352 C 87.715,65.946 87.227,67.368 87.805,68.532 C 88.383,69.692 89.816,70.157 91,69.567 C 92.188,68.977 92.68,67.555 92.098,66.391 z"
         style="fill:#b3b3b3;fill-opacity:1;fill-rule:nonzero;stroke:none"
         id="path437" /><g
         id="g439"
         transform="matrix(1,-0.498301,-0.448238,-0.899531,0,219.2)"><path
           d="M 134.777,95.215 C 134.778,96.509 133.815,97.559 132.632,97.559 C 131.444,97.557 130.485,96.507 130.483,95.214 C 130.483,93.924 131.446,92.874 132.63,92.874 C 133.817,92.873 134.778,93.92 134.777,95.215 z"
           style="fill:none;stroke:#626d73;stroke-width:0.74947602;stroke-linecap:butt;stroke-linejoin:miter;stroke-miterlimit:4;stroke-dasharray:none;stroke-opacity:0.71291899"
           id="path441" /></g><g
         id="g443"
         transform="matrix(1,-0.810655,-0.810655,-1,0,219.2)"><path
           d="M 128.87,49.515 L 129.288,51.708 L 131.252,51.557 L 128.375,53.694 L 132.002,53.957 L 129.282,56.49 L 132.666,56.949 L 129.901,59.277 L 133.385,59.855"
           style="fill:none;stroke:#626d73;stroke-width:0.45303801;stroke-linecap:butt;stroke-linejoin:miter;stroke-miterlimit:4;stroke-dasharray:none;stroke-opacity:0.71291899"
           id="path445" /></g><path
         d="M 63.445,55.302 C 67.785,61.466 74.938,65.43 86.652,65.825"
         style="fill:none;stroke:#000000;stroke-width:0.80000001;stroke-linecap:butt;stroke-linejoin:miter;stroke-miterlimit:4;stroke-dasharray:none;stroke-opacity:1"
         id="path447" /><g
         id="g449"
         transform="matrix(-1,-3.37034e-2,3.37034e-2,-1,0,219.2)"><path
           d="M -78.195,156.12 L -76.593,154.519 L -82.191,156.118 L -76.595,157.718 L -78.195,156.12 z"
           style="fill:#000000;fill-opacity:1;fill-rule:evenodd;stroke:#000000;stroke-width:0.399773;stroke-linecap:butt;stroke-linejoin:miter;stroke-miterlimit:4;stroke-dasharray:none;stroke-opacity:1"
           id="path451" /></g><path
         d="M 110.973,42.872 C 110.395,41.712 108.961,41.247 107.777,41.837 C 106.59,42.427 106.102,43.848 106.68,45.012 C 107.258,46.177 108.691,46.641 109.875,46.052 C 111.062,45.458 111.555,44.036 110.973,42.872 z"
         style="fill:#b3b3b3;fill-opacity:1;fill-rule:nonzero;stroke:none"
         id="path453" /><g
         id="g455"
         transform="matrix(1,-0.498301,-0.448238,-0.899531,0,219.2)"><path
           d="M 159.286,107.785 C 159.286,109.075 158.323,110.125 157.139,110.125 C 155.953,110.126 154.994,109.077 154.992,107.784 C 154.991,106.49 155.954,105.44 157.137,105.44 C 158.324,105.439 159.287,106.49 159.286,107.785 z"
           style="fill:none;stroke:#626d73;stroke-width:0.74947602;stroke-linecap:butt;stroke-linejoin:miter;stroke-miterlimit:4;stroke-dasharray:none;stroke-opacity:0.71291899"
           id="path457" /></g><g
         id="g459"
         transform="matrix(1,-0.810655,-0.810655,-1,0,219.2)"><path
           d="M 151.765,54.474 L 152.181,56.665 L 154.148,56.512 L 151.268,58.651 L 154.895,58.914 L 152.175,61.447 L 155.56,61.906 L 152.794,64.234 L 156.28,64.814"
           style="fill:none;stroke:#626d73;stroke-width:0.45303801;stroke-linecap:butt;stroke-linejoin:miter;stroke-miterlimit:4;stroke-dasharray:none;stroke-opacity:0.71291899"
           id="path461" /></g><g
         transform="matrix(0.3341504,0.9425197,-0.9425197,0.3341504,212.42942,-24.592488)"
         id="g3851"><path
           id="path3853"
           style="fill:#b10000;fill-opacity:1;fill-rule:nonzero;stroke:#000000;stroke-width:0.80000001;stroke-miterlimit:4;stroke-dasharray:none;stroke-opacity:1"
           d="M 85.117,128.774 C 84.406,127.688 82.93,127.391 81.824,128.118 C 80.715,128.845 80.395,130.313 81.105,131.399 C 81.816,132.489 83.293,132.782 84.402,132.055 C 85.508,131.329 85.832,129.86 85.117,128.774 z" /><g
           transform="matrix(1,0,0,-1,0,219.2)"
           id="g3855"
           style="stroke:#000000;stroke-opacity:1"><path
             id="path3857"
             style="fill:none;stroke:#000000;stroke-width:0.58319998;stroke-linecap:butt;stroke-linejoin:miter;stroke-miterlimit:4;stroke-dasharray:none;stroke-opacity:1"
             d="M 81.637,91.203 L 79.988,93.555 L 81.895,95.227 L 77.34,94.496 L 80.352,98.078 L 75.574,97.844 L 78.191,101.379 L 73.562,100.918 L 76.156,104.652" /></g></g><g
         transform="matrix(0.7327329,0.6805163,-0.6805163,0.7327329,143.95452,-87.55329)"
         id="g3859"><path
           id="path3861"
           style="fill:#b10000;fill-opacity:1;fill-rule:nonzero;stroke:#000000;stroke-width:0.80000001;stroke-miterlimit:4;stroke-dasharray:none;stroke-opacity:1"
           d="M 85.117,128.774 C 84.406,127.688 82.93,127.391 81.824,128.118 C 80.715,128.845 80.395,130.313 81.105,131.399 C 81.816,132.489 83.293,132.782 84.402,132.055 C 85.508,131.329 85.832,129.86 85.117,128.774 z" /><g
           transform="matrix(1,0,0,-1,0,219.2)"
           id="g3863"
           style="stroke:#000000;stroke-opacity:1"><path
             id="path3865"
             style="fill:none;stroke:#000000;stroke-width:0.58319998;stroke-linecap:butt;stroke-linejoin:miter;stroke-miterlimit:4;stroke-dasharray:none;stroke-opacity:1"
             d="M 81.637,91.203 L 79.988,93.555 L 81.895,95.227 L 77.34,94.496 L 80.352,98.078 L 75.574,97.844 L 78.191,101.379 L 73.562,100.918 L 76.156,104.652" /></g></g><g
         transform="matrix(0.9305272,-0.3662226,0.3662226,0.9305272,-57.429829,-6.965029)"
         id="g3867"><path
           id="path3869"
           style="fill:#b10000;fill-opacity:1;fill-rule:nonzero;stroke:#000000;stroke-width:0.80000001;stroke-miterlimit:4;stroke-dasharray:none;stroke-opacity:1"
           d="M 85.117,128.774 C 84.406,127.688 82.93,127.391 81.824,128.118 C 80.715,128.845 80.395,130.313 81.105,131.399 C 81.816,132.489 83.293,132.782 84.402,132.055 C 85.508,131.329 85.832,129.86 85.117,128.774 z" /><g
           transform="matrix(1,0,0,-1,0,219.2)"
           id="g3871"
           style="stroke:#000000;stroke-opacity:1"><path
             id="path3873"
             style="fill:none;stroke:#000000;stroke-width:0.58319998;stroke-linecap:butt;stroke-linejoin:miter;stroke-miterlimit:4;stroke-dasharray:none;stroke-opacity:1"
             d="M 81.637,91.203 L 79.988,93.555 L 81.895,95.227 L 77.34,94.496 L 80.352,98.078 L 75.574,97.844 L 78.191,101.379 L 73.562,100.918 L 76.156,104.652" /></g></g><g
         transform="matrix(-0.8189195,0.5739083,-0.5739083,-0.8189195,257.10433,194.25336)"
         id="g3875"><path
           id="path3877"
           style="fill:#b10000;fill-opacity:1;fill-rule:nonzero;stroke:#000000;stroke-width:0.80000001;stroke-miterlimit:4;stroke-dasharray:none;stroke-opacity:1"
           d="M 85.117,128.774 C 84.406,127.688 82.93,127.391 81.824,128.118 C 80.715,128.845 80.395,130.313 81.105,131.399 C 81.816,132.489 83.293,132.782 84.402,132.055 C 85.508,131.329 85.832,129.86 85.117,128.774 z" /><g
           transform="matrix(1,0,0,-1,0,219.2)"
           id="g3879"
           style="stroke:#000000;stroke-opacity:1"><path
             id="path3881"
             style="fill:none;stroke:#000000;stroke-width:0.58319998;stroke-linecap:butt;stroke-linejoin:miter;stroke-miterlimit:4;stroke-dasharray:none;stroke-opacity:1"
             d="M 81.637,91.203 L 79.988,93.555 L 81.895,95.227 L 77.34,94.496 L 80.352,98.078 L 75.574,97.844 L 78.191,101.379 L 73.562,100.918 L 76.156,104.652" /></g></g></g></g></svg>